<svg width="18" height="18" viewBox="0 0 18 18" fill="none" xmlns="http://www.w3.org/2000/svg">
<path fill-rule="evenodd" clip-rule="evenodd" d="M6.27231 0.862305L6.30005 0.862305H11.7L11.7278 0.862305C12.5444 0.862299 13.1961 0.862295 13.7224 0.905295C14.262 0.949388 14.7257 1.04186 15.1514 1.25877C15.8359 1.60751 16.3923 2.16398 16.7411 2.84841C16.958 3.27413 17.0505 3.73782 17.0946 4.2775C17.1376 4.8038 17.1376 5.45553 17.1375 6.27211V6.2998V11.6998V11.7275C17.1376 12.5441 17.1376 13.1958 17.0946 13.7221C17.0505 14.2618 16.958 14.7255 16.7411 15.1512C16.3923 15.8356 15.8359 16.3921 15.1514 16.7408C14.7257 16.9578 14.262 17.0502 13.7224 17.0943C13.1961 17.1373 12.5443 17.1373 11.7277 17.1373H11.7H6.30005H6.27235C5.45577 17.1373 4.80404 17.1373 4.27774 17.0943C3.73806 17.0502 3.27437 16.9578 2.84866 16.7408C2.16422 16.3921 1.60775 15.8356 1.25901 15.1512C1.0421 14.7255 0.949632 14.2618 0.905539 13.7221C0.862539 13.1958 0.862543 12.5441 0.862549 11.7275L0.862549 11.6998V6.2998L0.862549 6.27206C0.862543 5.4555 0.862539 4.80379 0.905539 4.2775C0.949632 3.73782 1.0421 3.27413 1.25901 2.84841C1.60775 2.16398 2.16422 1.60751 2.84866 1.25877C3.27437 1.04186 3.73806 0.949388 4.27774 0.905295C4.80403 0.862295 5.45575 0.862299 6.27231 0.862305ZM4.38157 2.17606C3.92073 2.21371 3.64352 2.28473 3.4275 2.3948C2.98296 2.6213 2.62155 2.98272 2.39505 3.42725C2.28498 3.64327 2.21396 3.92049 2.1763 4.38132C2.13804 4.8496 2.13755 5.44921 2.13755 6.2998V11.6998C2.13755 12.5504 2.13804 13.15 2.1763 13.6183C2.21396 14.0791 2.28498 14.3563 2.39505 14.5724C2.62155 15.0169 2.98296 15.3783 3.4275 15.6048C3.64352 15.7149 3.92073 15.7859 4.38157 15.8236C4.84984 15.8618 5.44945 15.8623 6.30005 15.8623H11.7C12.5506 15.8623 13.1503 15.8618 13.6185 15.8236C14.0794 15.7859 14.3566 15.7149 14.5726 15.6048C15.0171 15.3783 15.3785 15.0169 15.6051 14.5724C15.7151 14.3563 15.7861 14.0791 15.8238 13.6183C15.8621 13.15 15.8625 12.5504 15.8625 11.6998V6.2998C15.8625 5.44921 15.8621 4.8496 15.8238 4.38132C15.7861 3.92049 15.7151 3.64327 15.6051 3.42725C15.3785 2.98272 15.0171 2.6213 14.5726 2.3948C14.3566 2.28473 14.0794 2.21371 13.6185 2.17606C13.1503 2.1378 12.5506 2.13731 11.7 2.13731H6.30005C5.44945 2.13731 4.84984 2.1378 4.38157 2.17606ZM7.50005 11.1373C7.0237 11.1373 6.63755 11.5235 6.63755 11.9998C6.63755 12.0619 6.68792 12.1123 6.75005 12.1123H11.25C11.3122 12.1123 11.3625 12.0619 11.3625 11.9998C11.3625 11.5235 10.9764 11.1373 10.5 11.1373H7.50005ZM5.36255 11.9998C5.36255 10.8193 6.31954 9.86231 7.50005 9.86231H10.5C11.6806 9.86231 12.6375 10.8193 12.6375 11.9998C12.6375 12.7661 12.0163 13.3873 11.25 13.3873H6.75005C5.98375 13.3873 5.36255 12.7661 5.36255 11.9998ZM8.13755 6.7498C8.13755 6.27346 8.5237 5.8873 9.00005 5.8873C9.47639 5.8873 9.86255 6.27346 9.86255 6.7498C9.86255 7.22615 9.47639 7.61231 9.00005 7.61231C8.5237 7.61231 8.13755 7.22615 8.13755 6.7498ZM9.00005 4.6123C7.81954 4.6123 6.86255 5.5693 6.86255 6.7498C6.86255 7.93031 7.81954 8.88731 9.00005 8.88731C10.1806 8.88731 11.1375 7.93031 11.1375 6.7498C11.1375 5.5693 10.1806 4.6123 9.00005 4.6123Z" fill="#707878"/>
</svg>
