<svg width="18" height="18" viewBox="0 0 18 18" fill="none" xmlns="http://www.w3.org/2000/svg">
<path fill-rule="evenodd" clip-rule="evenodd" d="M9.24992 2.4375C7.54413 2.4375 6.13664 3.87483 6.13664 5.67885C6.13664 7.48286 7.54413 8.92019 9.24992 8.92019C10.9557 8.92019 12.3632 7.48286 12.3632 5.67885C12.3632 3.87483 10.9557 2.4375 9.24992 2.4375ZM7.41474 5.67885C7.41474 4.65102 8.22237 3.79199 9.24992 3.79199C10.2775 3.79199 11.0851 4.65102 11.0851 5.67885C11.0851 6.70667 10.2775 7.5657 9.24992 7.5657C8.22237 7.5657 7.41474 6.70667 7.41474 5.67885ZM6.77569 10.6619C5.0699 10.6619 3.66241 12.0992 3.66241 13.9032C3.66241 14.9991 4.51595 15.8625 5.53857 15.8625H12.9613C13.9839 15.8625 14.8374 14.9991 14.8374 13.9032C14.8374 12.0992 13.4299 10.6619 11.7241 10.6619H6.77569ZM4.94051 13.9032C4.94051 12.8754 5.74815 12.0163 6.77569 12.0163H11.7241C12.7517 12.0163 13.5593 12.8754 13.5593 13.9032C13.5593 14.2222 13.3063 14.508 12.9613 14.508H5.53857C5.19351 14.508 4.94051 14.2222 4.94051 13.9032Z" fill="#707878"/>
</svg>
