<svg width="18" height="15" viewBox="0 0 18 15" fill="none" xmlns="http://www.w3.org/2000/svg">
<path fill-rule="evenodd" clip-rule="evenodd" d="M4.49998 0.612355L4.40609 0.612329C3.79982 0.612081 3.37151 0.611905 3.00264 0.710744C2.00618 0.977743 1.22786 1.75606 0.960866 2.75251C0.862027 3.12139 0.862203 3.5497 0.862451 4.15597L0.862477 4.24985V10.3999L0.862476 10.4268C0.862469 11.034 0.862464 11.5283 0.895248 11.9296C0.929124 12.3442 1.00115 12.7153 1.1772 13.0608C1.45403 13.6041 1.89576 14.0458 2.43908 14.3226C2.78458 14.4987 3.15565 14.5707 3.57027 14.6046C3.97154 14.6374 4.46588 14.6374 5.07312 14.6374H5.09998H12.9H12.9268C13.5341 14.6374 14.0284 14.6374 14.4297 14.6046C14.8443 14.5707 15.2154 14.4987 15.5609 14.3226C16.1042 14.0458 16.5459 13.6041 16.8228 13.0608C16.9988 12.7153 17.0708 12.3442 17.1047 11.9296C17.1375 11.5283 17.1375 11.0339 17.1375 10.4267V10.3999V7.09985V7.073C17.1375 6.46576 17.1375 5.97142 17.1047 5.57015C17.0708 5.15553 16.9988 4.78446 16.8228 4.43896C16.5459 3.89564 16.1042 3.45391 15.5609 3.17707C15.2154 3.00103 14.8443 2.929 14.4297 2.89513C14.0284 2.86234 13.5341 2.86235 12.9269 2.86235H12.9269L12.9 2.86235H11.2411C10.6605 2.86235 10.474 2.85826 10.3055 2.8178C10.141 2.7783 9.9837 2.71315 9.83943 2.62474C9.69166 2.53419 9.55694 2.40526 9.14634 1.99466L9.00517 1.85349L8.95612 1.80441L8.95611 1.8044C8.61444 1.46249 8.36926 1.21713 8.07671 1.03786C7.81836 0.879538 7.5367 0.762871 7.24207 0.692136C6.90844 0.612039 6.56157 0.612164 6.0782 0.612338L6.00881 0.612355H4.49998ZM3.33263 1.9423C3.51725 1.89283 3.76145 1.88735 4.49998 1.88735H6.00881C6.58948 1.88735 6.77591 1.89145 6.94443 1.93191C7.10896 1.97141 7.26625 2.03656 7.41053 2.12497C7.55829 2.21552 7.69301 2.34445 8.10361 2.75505L8.24478 2.89622L8.29384 2.9453C8.63551 3.28722 8.88069 3.53258 9.17324 3.71185C9.43159 3.87017 9.71325 3.98684 10.0079 4.05757C10.3415 4.13767 10.6884 4.13755 11.1717 4.13737H11.1718L11.2411 4.13735H12.9C13.5406 4.13735 13.9826 4.13785 14.3259 4.16589C14.6616 4.19333 14.8462 4.24391 14.982 4.31311C15.2854 4.4677 15.5321 4.71438 15.6867 5.0178C15.7559 5.1536 15.8065 5.3382 15.8339 5.67397C15.862 6.01718 15.8625 6.45928 15.8625 7.09985V10.3999C15.8625 11.0404 15.862 11.4825 15.8339 11.8257C15.8065 12.1615 15.7559 12.3461 15.6867 12.4819C15.5321 12.7853 15.2854 13.032 14.982 13.1866C14.8462 13.2558 14.6616 13.3064 14.3259 13.3338C13.9826 13.3619 13.5406 13.3624 12.9 13.3624H5.09998C4.4594 13.3624 4.0173 13.3619 3.67409 13.3338C3.33833 13.3064 3.15372 13.2558 3.01792 13.1866C2.71451 13.032 2.46782 12.7853 2.31323 12.4819C2.24403 12.3461 2.19345 12.1615 2.16601 11.8257C2.13797 11.4825 2.13748 11.0404 2.13748 10.3999V4.24985C2.13748 3.51133 2.14295 3.26713 2.19242 3.08251C2.34152 2.52605 2.77617 2.0914 3.33263 1.9423ZM9.63748 6.49995C9.63748 6.14786 9.35206 5.86245 8.99998 5.86245C8.64789 5.86245 8.36248 6.14786 8.36248 6.49995V9.46088L7.57576 8.67417C7.3268 8.42521 6.92316 8.42521 6.6742 8.67417C6.42524 8.92312 6.42524 9.32677 6.6742 9.57573L8.5492 11.4507C8.79815 11.6997 9.2018 11.6997 9.45076 11.4507L11.3258 9.57573C11.5747 9.32677 11.5747 8.92312 11.3258 8.67417C11.0768 8.42521 10.6732 8.42521 10.4242 8.67417L9.63748 9.46088V6.49995Z" fill="#707878"/>
</svg>
