<svg width="18" height="19" viewBox="0 0 18 19" fill="none" xmlns="http://www.w3.org/2000/svg">
<path fill-rule="evenodd" clip-rule="evenodd" d="M4.50004 2.18748L4.41319 2.18746C3.79972 2.18725 3.3811 2.18712 3.02211 2.28331C2.05154 2.54337 1.29343 3.30148 1.03337 4.27205C0.937178 4.63104 0.937316 5.04966 0.937518 5.66313L0.937537 5.74998V11.9V11.9241C0.937531 12.5337 0.937527 13.0254 0.97006 13.4236C1.00356 13.8336 1.07433 14.1937 1.24408 14.5268C1.51373 15.056 1.94398 15.4863 2.47319 15.7559C2.80635 15.9257 3.16646 15.9965 3.57644 16.03C3.97462 16.0625 4.46632 16.0625 5.07594 16.0625H5.10004H12.9H12.9241C13.5338 16.0625 14.0255 16.0625 14.4236 16.03C14.8336 15.9965 15.1937 15.9257 15.5269 15.7559C16.0561 15.4863 16.4864 15.056 16.756 14.5268C16.9257 14.1937 16.9965 13.8336 17.03 13.4236C17.0625 13.0254 17.0625 12.5337 17.0625 11.9241V11.9V8.59998V8.57588C17.0625 7.96626 17.0625 7.47455 17.03 7.07638C16.9965 6.6664 16.9257 6.30629 16.756 5.97313C16.4864 5.44392 16.0561 5.01366 15.5269 4.74402C15.1937 4.57427 14.8336 4.5035 14.4236 4.47C14.0255 4.43747 13.5337 4.43747 12.9241 4.43748H12.9H11.2412C10.6641 4.43748 10.4672 4.43386 10.2881 4.39085C10.1159 4.34951 9.95129 4.28133 9.8003 4.18881C9.64321 4.09254 9.50144 3.95589 9.09337 3.54781L8.9522 3.40664L8.90689 3.36131C8.56144 3.01567 8.32233 2.77642 8.03758 2.60193C7.78594 2.44772 7.5116 2.33408 7.22462 2.26519C6.89989 2.18722 6.56164 2.18732 6.07297 2.18746L6.00887 2.18748H4.50004ZM3.31328 3.36998C3.50984 3.31731 3.76634 3.31248 4.50004 3.31248H6.00887C6.58597 3.31248 6.78284 3.31609 6.962 3.3591C7.13418 3.40044 7.29879 3.46862 7.44977 3.56115C7.60687 3.65741 7.74863 3.79407 8.15671 4.20214L8.29787 4.34331L8.34318 4.38863C8.68863 4.73428 8.92774 4.97353 9.21249 5.14803C9.46413 5.30223 9.73848 5.41587 10.0255 5.48477C10.3502 5.56273 10.6884 5.56263 11.1771 5.56249L11.2412 5.56248H12.9C13.5394 5.56248 13.9851 5.56291 14.332 5.59126C14.6724 5.61908 14.868 5.67092 15.0161 5.7464C15.3337 5.90819 15.5918 6.16634 15.7536 6.48387C15.8291 6.63201 15.8809 6.82758 15.9088 7.16799C15.9371 7.51496 15.9375 7.96064 15.9375 8.59998V11.9C15.9375 12.5393 15.9371 12.985 15.9088 13.332C15.8809 13.6724 15.8291 13.8679 15.7536 14.0161C15.5918 14.3336 15.3337 14.5918 15.0161 14.7536C14.868 14.829 14.6724 14.8809 14.332 14.9087C13.9851 14.937 13.5394 14.9375 12.9 14.9375H5.10004C4.4607 14.9375 4.01502 14.937 3.66805 14.9087C3.32764 14.8809 3.13207 14.829 2.98393 14.7536C2.6664 14.5918 2.40825 14.3336 2.24646 14.0161C2.17098 13.8679 2.11914 13.6724 2.09132 13.332C2.06297 12.985 2.06254 12.5393 2.06254 11.9V5.74998C2.06254 5.01628 2.06737 4.75978 2.12004 4.56322C2.27608 3.98088 2.73094 3.52601 3.31328 3.36998Z" fill="#161918"/>
<path d="M9.66348 12.5C9.66348 12.9142 9.3277 13.25 8.91348 13.25C8.49927 13.25 8.16348 12.9142 8.16348 12.5C8.16348 12.0857 8.49927 11.75 8.91348 11.75C9.3277 11.75 9.66348 12.0857 9.66348 12.5Z" fill="#161918"/>
<path d="M9.55098 7.24996C9.55098 6.89788 9.26556 6.61246 8.91348 6.61246C8.5614 6.61246 8.27598 6.89788 8.27598 7.24996V10.25C8.27598 10.602 8.5614 10.8875 8.91348 10.8875C9.26556 10.8875 9.55098 10.602 9.55098 10.25V7.24996Z" fill="#161918"/>
</svg>
