<svg width="48" height="49" viewBox="0 0 48 49" fill="none" xmlns="http://www.w3.org/2000/svg">
<rect y="0.5" width="48" height="48" rx="16" fill="#816D44" fill-opacity="0.19"/>
<path fill-rule="evenodd" clip-rule="evenodd" d="M17.8748 14.6499C17.9159 14.65 17.9576 14.65 18 14.65H20.0117C20.043 14.65 20.0738 14.65 20.1043 14.6499C20.7488 14.6497 21.2113 14.6495 21.6561 14.7563C22.0489 14.8507 22.4245 15.0062 22.7689 15.2173C23.159 15.4563 23.4859 15.7835 23.9415 16.2394C23.963 16.2609 23.9848 16.2827 24.0069 16.3048L24.1951 16.493C24.7426 17.0405 24.9222 17.2124 25.1192 17.3331C25.3116 17.451 25.5213 17.5379 25.7407 17.5906C25.9654 17.6445 26.214 17.65 26.9882 17.65H29.2L29.2358 17.65C30.0455 17.65 30.7046 17.65 31.2396 17.6937C31.7924 17.7388 32.2872 17.8349 32.7478 18.0696C33.4723 18.4387 34.0612 19.0277 34.4303 19.7521C34.6651 20.2128 34.7611 20.7075 34.8063 21.2604C34.85 21.7954 34.85 22.4545 34.85 23.2642V23.3V27.7V27.7358C34.85 28.5454 34.85 29.2045 34.8063 29.7396C34.7611 30.2924 34.6651 30.7872 34.4303 31.2478C34.0612 31.9723 33.4723 32.5612 32.7478 32.9303C32.2872 33.1651 31.7924 33.2611 31.2396 33.3063C30.7045 33.35 30.0454 33.35 29.2358 33.35H29.2H18.8H18.7642C17.9545 33.35 17.2954 33.35 16.7604 33.3063C16.2075 33.2611 15.7128 33.1651 15.2521 32.9303C14.5277 32.5612 13.9387 31.9723 13.5696 31.2478C13.3349 30.7872 13.2388 30.2924 13.1937 29.7396C13.15 29.2046 13.15 28.5455 13.15 27.7358L13.15 27.7V19.5C13.15 19.4576 13.15 19.4159 13.1499 19.3748C13.1496 18.5664 13.1494 17.9953 13.2812 17.5035C13.6372 16.1749 14.6749 15.1372 16.0035 14.7812C16.4953 14.6494 17.0664 14.6496 17.8748 14.6499ZM18 16.35C17.0153 16.35 16.6897 16.3573 16.4435 16.4232C15.7016 16.622 15.122 17.2016 14.9232 17.9435C14.8573 18.1897 14.85 18.5153 14.85 19.5V27.7C14.85 28.5541 14.8506 29.1435 14.888 29.6011C14.9246 30.0488 14.992 30.295 15.0843 30.476C15.2904 30.8806 15.6193 31.2095 16.0239 31.4156C16.205 31.5079 16.4511 31.5753 16.8988 31.6119C17.3564 31.6493 17.9459 31.65 18.8 31.65H29.2C30.0541 31.65 30.6435 31.6493 31.1011 31.6119C31.5488 31.5753 31.795 31.5079 31.976 31.4156C32.3806 31.2095 32.7095 30.8806 32.9156 30.476C33.0079 30.295 33.0753 30.0488 33.1119 29.6011C33.1493 29.1435 33.15 28.5541 33.15 27.7V23.3C33.15 22.4459 33.1493 21.8564 33.1119 21.3988C33.0753 20.9511 33.0079 20.705 32.9156 20.5239C32.7095 20.1193 32.3806 19.7904 31.976 19.5843C31.795 19.492 31.5488 19.4246 31.1011 19.388C30.6435 19.3506 30.0541 19.35 29.2 19.35H26.9882C26.9569 19.35 26.9261 19.35 26.8957 19.35C26.2512 19.3502 25.7887 19.3504 25.3438 19.2436C24.951 19.1493 24.5755 18.9937 24.231 18.7826C23.8409 18.5436 23.514 18.2165 23.0584 17.7606C23.0369 17.739 23.0151 17.7172 22.993 17.6951L22.8048 17.5069C22.2574 16.9594 22.0777 16.7875 21.8807 16.6668C21.6883 16.5489 21.4786 16.462 21.2592 16.4094C21.0346 16.3554 20.786 16.35 20.0117 16.35H18Z" fill="#5B5858"/>
<path d="M20 25.5C20.5523 25.5 21 25.0523 21 24.5C21 23.9477 20.5523 23.5 20 23.5C19.4477 23.5 19 23.9477 19 24.5C19 25.0523 19.4477 25.5 20 25.5Z" fill="#161918"/>
<path d="M25 24.5C25 25.0523 24.5523 25.5 24 25.5C23.4477 25.5 23 25.0523 23 24.5C23 23.9477 23.4477 23.5 24 23.5C24.5523 23.5 25 23.9477 25 24.5Z" fill="#161918"/>
<path d="M28 25.5C28.5523 25.5 29 25.0523 29 24.5C29 23.9477 28.5523 23.5 28 23.5C27.4477 23.5 27 23.9477 27 24.5C27 25.0523 27.4477 25.5 28 25.5Z" fill="#161918"/>
</svg>
