<svg width="48" height="48" viewBox="0 0 48 48" fill="none" xmlns="http://www.w3.org/2000/svg">
<rect width="48" height="48" rx="16" fill="#816D44" fill-opacity="0.19"/>
<path fill-rule="evenodd" clip-rule="evenodd" d="M18 14.2499L17.8842 14.2499C17.0662 14.2496 16.5081 14.2495 16.0294 14.3777C14.7353 14.7245 13.7245 15.7353 13.3778 17.0294C13.2495 17.508 13.2497 18.0662 13.25 18.8841L13.25 18.9999V27.1999V27.232C13.25 28.0449 13.25 28.7005 13.2934 29.2314C13.338 29.778 13.4324 30.2582 13.6587 30.7024C14.0183 31.408 14.5919 31.9817 15.2975 32.3412C15.7418 32.5676 16.2219 32.6619 16.7685 32.7066C17.2994 32.7499 17.955 32.7499 18.7679 32.7499H18.8H29.2H29.2321C30.045 32.7499 30.7006 32.7499 31.2315 32.7066C31.7781 32.6619 32.2582 32.5676 32.7025 32.3412C33.4081 31.9817 33.9818 31.408 34.3413 30.7024C34.5676 30.2582 34.662 29.778 34.7066 29.2314C34.75 28.7005 34.75 28.0449 34.75 27.2321V27.1999V22.7999V22.7678C34.75 21.955 34.75 21.2994 34.7066 20.7685C34.662 20.2218 34.5676 19.7417 34.3413 19.2975C33.9818 18.5919 33.4081 18.0182 32.7025 17.6587C32.2582 17.4323 31.7781 17.338 31.2315 17.2933C30.7006 17.2499 30.0449 17.2499 29.2321 17.2499H29.2H26.9882C26.2188 17.2499 25.9563 17.2451 25.7174 17.1878C25.4878 17.1326 25.2683 17.0417 25.067 16.9184C24.8576 16.79 24.6685 16.6078 24.1244 16.0637L23.9362 15.8755L23.8758 15.815C23.4152 15.3542 23.0964 15.0352 22.7167 14.8025C22.3812 14.5969 22.0154 14.4454 21.6328 14.3535C21.1998 14.2496 20.7488 14.2497 20.0972 14.2499L20.0118 14.2499H18ZM16.4177 15.8266C16.6797 15.7564 17.0217 15.7499 18 15.7499H20.0118C20.7812 15.7499 21.0437 15.7548 21.2826 15.8121C21.5122 15.8672 21.7317 15.9581 21.933 16.0815C22.1424 16.2099 22.3315 16.3921 22.8756 16.9362L23.0638 17.1244L23.1242 17.1848C23.5848 17.6457 23.9036 17.9647 24.2833 18.1973C24.6188 18.4029 24.9846 18.5545 25.3672 18.6463C25.8002 18.7503 26.2512 18.7501 26.9028 18.75L26.9882 18.7499H29.2C30.0525 18.7499 30.6467 18.7505 31.1093 18.7883C31.5632 18.8254 31.824 18.8945 32.0215 18.9952C32.4448 19.2109 32.7891 19.5551 33.0048 19.9785C33.1054 20.176 33.1745 20.4367 33.2116 20.8906C33.2494 21.3532 33.25 21.9475 33.25 22.7999V27.1999C33.25 28.0524 33.2494 28.6466 33.2116 29.1093C33.1745 29.5631 33.1054 29.8239 33.0048 30.0214C32.7891 30.4448 32.4448 30.789 32.0215 31.0047C31.824 31.1053 31.5632 31.1745 31.1093 31.2116C30.6467 31.2494 30.0525 31.2499 29.2 31.2499H18.8C17.9475 31.2499 17.3533 31.2494 16.8907 31.2116C16.4368 31.1745 16.176 31.1053 15.9785 31.0047C15.5552 30.789 15.211 30.4448 14.9952 30.0214C14.8946 29.8239 14.8255 29.5631 14.7884 29.1093C14.7506 28.6466 14.75 28.0524 14.75 27.1999V18.9999C14.75 18.0217 14.7564 17.6797 14.8267 17.4176C15.0347 16.6411 15.6412 16.0347 16.4177 15.8266ZM22.0303 21.9697C21.7374 21.6768 21.2626 21.6768 20.9697 21.9697C20.6768 22.2626 20.6768 22.7375 20.9697 23.0304L22.9393 25.0001L20.9697 26.9697C20.6768 27.2626 20.6768 27.7375 20.9697 28.0304C21.2626 28.3233 21.7374 28.3233 22.0303 28.0304L24 26.0607L25.9697 28.0304C26.2626 28.3233 26.7374 28.3233 27.0303 28.0304C27.3232 27.7375 27.3232 27.2626 27.0303 26.9697L25.0607 25.0001L27.0303 23.0304C27.3232 22.7375 27.3232 22.2626 27.0303 21.9697C26.7374 21.6768 26.2626 21.6768 25.9697 21.9697L24 23.9394L22.0303 21.9697Z" fill="#5B5858"/>
</svg>
