<svg width="18" height="18" viewBox="0 0 18 18" fill="none" xmlns="http://www.w3.org/2000/svg">
<path fill-rule="evenodd" clip-rule="evenodd" d="M4.65005 1.61231H4.62471H4.62469C4.22625 1.6123 3.88921 1.61229 3.61294 1.63486C3.32339 1.65852 3.04493 1.71011 2.77965 1.84528C2.37745 2.05021 2.05045 2.3772 1.84552 2.7794C1.71036 3.04468 1.65876 3.32314 1.6351 3.6127C1.61253 3.88896 1.61254 4.226 1.61255 4.62445V4.62447V4.64981V5.09981V5.12514V5.12516C1.61254 5.52361 1.61253 5.86065 1.6351 6.13692C1.65876 6.42647 1.71036 6.70493 1.84552 6.97021C2.05045 7.37241 2.37745 7.6994 2.77965 7.90433C3.04493 8.0395 3.32339 8.0911 3.61294 8.11475C3.88921 8.13733 4.22625 8.13732 4.62468 8.13731H4.62469H4.6247H4.6247L4.65005 8.13731H5.10005L5.1254 8.13731H5.1254H5.12541H5.12542C5.52386 8.13732 5.86089 8.13733 6.13716 8.11475C6.42671 8.0911 6.70517 8.0395 6.97045 7.90433C7.37265 7.6994 7.69965 7.37241 7.90458 6.97021C8.03974 6.70493 8.09134 6.42647 8.115 6.13692C8.13757 5.86065 8.13756 5.52361 8.13755 5.12517V5.12517V5.12516V5.12515L8.13755 5.09981V4.64981L8.13755 4.62446V4.62445V4.62445V4.62444C8.13756 4.226 8.13757 3.88896 8.115 3.6127C8.09134 3.32314 8.03974 3.04468 7.90458 2.7794C7.69965 2.3772 7.37265 2.05021 6.97045 1.84528C6.70517 1.71011 6.42671 1.65852 6.13716 1.63486C5.86089 1.61229 5.52385 1.6123 5.12541 1.61231H5.12539H5.10005H4.65005ZM3.35848 2.98131C3.41407 2.95299 3.50606 2.92284 3.71677 2.90563C3.93491 2.8878 4.21949 2.88731 4.65005 2.88731H5.10005C5.53061 2.88731 5.81519 2.8878 6.03333 2.90563C6.24404 2.92284 6.33603 2.95299 6.39162 2.98131C6.55391 3.064 6.68585 3.19595 6.76854 3.35824C6.79687 3.41382 6.82702 3.50582 6.84423 3.71652C6.86205 3.93467 6.86255 4.21925 6.86255 4.64981V5.09981C6.86255 5.53036 6.86205 5.81494 6.84423 6.03309C6.82702 6.24379 6.79687 6.33579 6.76854 6.39137C6.68585 6.55366 6.55391 6.68561 6.39162 6.7683C6.33603 6.79662 6.24404 6.82677 6.03333 6.84399C5.81519 6.86181 5.53061 6.86231 5.10005 6.86231H4.65005C4.21949 6.86231 3.93491 6.86181 3.71677 6.84399C3.50606 6.82677 3.41407 6.79662 3.35848 6.7683C3.19619 6.68561 3.06425 6.55366 2.98156 6.39137C2.95323 6.33579 2.92308 6.24379 2.90587 6.03309C2.88805 5.81494 2.88755 5.53036 2.88755 5.09981V4.64981C2.88755 4.21925 2.88805 3.93467 2.90587 3.71652C2.92308 3.50582 2.95323 3.41382 2.98156 3.35824C3.06425 3.19595 3.19619 3.064 3.35848 2.98131ZM4.65005 9.86231H4.62471H4.62471H4.6247H4.62469C4.22625 9.8623 3.88921 9.86229 3.61294 9.88486C3.32339 9.90852 3.04493 9.96011 2.77965 10.0953C2.37745 10.3002 2.05045 10.6272 1.84552 11.0294C1.71036 11.2947 1.65876 11.5731 1.6351 11.8627C1.61253 12.139 1.61254 12.476 1.61255 12.8744V12.8745V12.8998V13.3498V13.3751V13.3752C1.61254 13.7736 1.61253 14.1106 1.6351 14.3869C1.65876 14.6765 1.71036 14.9549 1.84552 15.2202C2.05045 15.6224 2.37745 15.9494 2.77965 16.1543C3.04493 16.2895 3.32339 16.3411 3.61294 16.3648C3.88921 16.3873 4.22625 16.3873 4.6247 16.3873L4.65005 16.3873H5.10005L5.1254 16.3873C5.52385 16.3873 5.86089 16.3873 6.13716 16.3648C6.42671 16.3411 6.70517 16.2895 6.97045 16.1543C7.37265 15.9494 7.69965 15.6224 7.90458 15.2202C8.03974 14.9549 8.09134 14.6765 8.115 14.3869C8.13757 14.1106 8.13756 13.7736 8.13755 13.3752V13.3752V13.3752V13.3752L8.13755 13.3498V12.8998L8.13755 12.8745V12.8745V12.8744V12.8744C8.13756 12.476 8.13757 12.139 8.115 11.8627C8.09134 11.5731 8.03974 11.2947 7.90458 11.0294C7.69965 10.6272 7.37265 10.3002 6.97045 10.0953C6.70517 9.96011 6.42671 9.90852 6.13716 9.88486C5.86089 9.86229 5.52385 9.8623 5.12541 9.86231H5.1254H5.12539H5.12539H5.10005H4.65005ZM3.35848 11.2313C3.41407 11.203 3.50606 11.1728 3.71677 11.1556C3.93491 11.1378 4.21949 11.1373 4.65005 11.1373H5.10005C5.53061 11.1373 5.81519 11.1378 6.03333 11.1556C6.24404 11.1728 6.33603 11.203 6.39162 11.2313C6.55391 11.314 6.68585 11.4459 6.76854 11.6082C6.79687 11.6638 6.82702 11.7558 6.84423 11.9665C6.86205 12.1847 6.86255 12.4692 6.86255 12.8998V13.3498C6.86255 13.7804 6.86205 14.0649 6.84423 14.2831C6.82702 14.4938 6.79687 14.5858 6.76854 14.6414C6.68585 14.8037 6.55391 14.9356 6.39162 15.0183C6.33603 15.0466 6.24404 15.0768 6.03333 15.094C5.81519 15.1118 5.53061 15.1123 5.10005 15.1123H4.65005C4.21949 15.1123 3.93491 15.1118 3.71677 15.094C3.50606 15.0768 3.41407 15.0466 3.35848 15.0183C3.19619 14.9356 3.06425 14.8037 2.98156 14.6414C2.95323 14.5858 2.92308 14.4938 2.90587 14.2831C2.88805 14.0649 2.88755 13.7804 2.88755 13.3498V12.8998C2.88755 12.4692 2.88805 12.1847 2.90587 11.9665C2.92308 11.7558 2.95323 11.6638 2.98156 11.6082C3.06425 11.4459 3.19619 11.314 3.35848 11.2313ZM12.8747 9.86231H12.9001H13.3501H13.3754H13.3754H13.3754C13.7738 9.8623 14.1109 9.86229 14.3872 9.88486C14.6767 9.90852 14.9552 9.96011 15.2205 10.0953C15.6227 10.3002 15.9496 10.6272 16.1546 11.0294C16.2897 11.2947 16.3413 11.5731 16.365 11.8627C16.3876 12.139 16.3876 12.476 16.3876 12.8745L16.3875 12.8998V13.3498L16.3876 13.3752C16.3876 13.7736 16.3876 14.1106 16.365 14.3869C16.3413 14.6765 16.2897 14.9549 16.1546 15.2202C15.9496 15.6224 15.6227 15.9494 15.2205 16.1543C14.9552 16.2895 14.6767 16.3411 14.3872 16.3648C14.1109 16.3873 13.7738 16.3873 13.3754 16.3873L13.3501 16.3873H12.9001L12.8747 16.3873C12.4763 16.3873 12.1392 16.3873 11.8629 16.3648C11.5734 16.3411 11.2949 16.2895 11.0296 16.1543C10.6274 15.9494 10.3005 15.6224 10.0955 15.2202C9.96036 14.9549 9.90876 14.6765 9.8851 14.3869C9.86253 14.1106 9.86254 13.7736 9.86255 13.3752V13.3752V13.3751V13.3498V12.8998V12.8745V12.8745V12.8745C9.86254 12.476 9.86253 12.139 9.8851 11.8627C9.90876 11.5731 9.96036 11.2947 10.0955 11.0294C10.3005 10.6272 10.6274 10.3002 11.0296 10.0953C11.2949 9.96011 11.5734 9.90852 11.8629 9.88486C12.1392 9.86229 12.4763 9.8623 12.8747 9.86231H12.8747H12.8747ZM11.9668 11.1556C11.7561 11.1728 11.6641 11.203 11.6085 11.2313C11.4462 11.314 11.3142 11.4459 11.2316 11.6082C11.2032 11.6638 11.1731 11.7558 11.1559 11.9665C11.138 12.1847 11.1376 12.4692 11.1376 12.8998V13.3498C11.1376 13.7804 11.138 14.0649 11.1559 14.2831C11.1731 14.4938 11.2032 14.5858 11.2316 14.6414C11.3142 14.8037 11.4462 14.9356 11.6085 15.0183C11.6641 15.0466 11.7561 15.0768 11.9668 15.094C12.1849 15.1118 12.4695 15.1123 12.9001 15.1123H13.3501C13.7806 15.1123 14.0652 15.1118 14.2833 15.094C14.494 15.0768 14.586 15.0466 14.6416 15.0183C14.8039 14.9356 14.9359 14.8037 15.0185 14.6414C15.0469 14.5858 15.077 14.4938 15.0942 14.2831C15.1121 14.0649 15.1126 13.7804 15.1126 13.3498V12.8998C15.1126 12.4692 15.1121 12.1847 15.0942 11.9665C15.077 11.7558 15.0469 11.6638 15.0185 11.6082C14.9359 11.4459 14.8039 11.314 14.6416 11.2313C14.586 11.203 14.494 11.1728 14.2833 11.1556C14.0652 11.1378 13.7806 11.1373 13.3501 11.1373H12.9001C12.4695 11.1373 12.1849 11.1378 11.9668 11.1556ZM13.7625 2.24981C13.7625 1.89772 13.4771 1.61231 13.1251 1.61231C12.773 1.61231 12.4876 1.89772 12.4876 2.24981V4.23731H10.5001C10.148 4.23731 9.86255 4.52272 9.86255 4.87481C9.86255 5.22689 10.148 5.51231 10.5001 5.51231H12.4876V7.49981C12.4876 7.85189 12.773 8.13731 13.1251 8.13731C13.4771 8.13731 13.7625 7.85189 13.7625 7.49981V5.51231H15.7501C16.1021 5.51231 16.3875 5.22689 16.3875 4.87481C16.3875 4.52272 16.1021 4.23731 15.7501 4.23731H13.7625V2.24981Z" fill="#161918"/>
</svg>
