<svg width="48" height="49" viewBox="0 0 48 49" fill="none" xmlns="http://www.w3.org/2000/svg">
<rect y="0.5" width="48" height="48" rx="16" fill="#816D44" fill-opacity="0.19"/>
<path fill-rule="evenodd" clip-rule="evenodd" d="M18 14.6499L17.8748 14.6499C17.0664 14.6495 16.4953 14.6493 16.0035 14.7811C14.6749 15.1371 13.6372 16.1748 13.2812 17.5035C13.1494 17.9953 13.1496 18.5664 13.1499 19.3747L13.15 19.4999V27.6999L13.15 27.7358C13.15 28.5454 13.15 29.2045 13.1937 29.7395C13.2388 30.2923 13.3349 30.7871 13.5696 31.2478C13.9387 31.9722 14.5277 32.5612 15.2521 32.9303C15.7128 33.165 16.2075 33.261 16.7604 33.3062C17.2954 33.3499 17.9545 33.3499 18.7642 33.3499H18.8H29.2H29.2358C30.0454 33.3499 30.7045 33.3499 31.2396 33.3062C31.7924 33.261 32.2872 33.165 32.7478 32.9303C33.4723 32.5612 34.0612 31.9722 34.4303 31.2478C34.6651 30.7871 34.7611 30.2923 34.8063 29.7395C34.85 29.2045 34.85 28.5454 34.85 27.7358V27.7357V27.6999V23.2999V23.2641V23.264C34.85 22.4544 34.85 21.7953 34.8063 21.2603C34.7611 20.7075 34.6651 20.2127 34.4303 19.752C34.0612 19.0276 33.4723 18.4386 32.7478 18.0695C32.2872 17.8348 31.7924 17.7388 31.2396 17.6936C30.7046 17.6499 30.0455 17.6499 29.2359 17.6499H29.2358L29.2 17.6499H26.9882C26.214 17.6499 25.9654 17.6444 25.7407 17.5905C25.5213 17.5378 25.3116 17.451 25.1192 17.3331C24.9222 17.2124 24.7426 17.0404 24.1951 16.493L24.0069 16.3048L23.9415 16.2393L23.9415 16.2393C23.4859 15.7834 23.159 15.4563 22.7689 15.2172C22.4245 15.0062 22.0489 14.8506 21.6561 14.7563C21.2113 14.6495 20.7488 14.6497 20.1043 14.6499L20.0117 14.6499H18ZM16.4435 16.4232C16.6897 16.3572 17.0153 16.3499 18 16.3499H20.0117C20.786 16.3499 21.0346 16.3554 21.2592 16.4093C21.4786 16.462 21.6883 16.5488 21.8807 16.6667C22.0777 16.7875 22.2574 16.9594 22.8048 17.5068L22.993 17.6951L23.0584 17.7605C23.514 18.2164 23.8409 18.5435 24.231 18.7826C24.5755 18.9937 24.951 19.1492 25.3438 19.2435C25.7887 19.3503 26.2512 19.3502 26.8957 19.3499L26.9882 19.3499H29.2C30.0541 19.3499 30.6435 19.3506 31.1011 19.388C31.5488 19.4245 31.795 19.492 31.976 19.5842C32.3806 19.7904 32.7095 20.1193 32.9156 20.5238C33.0079 20.7049 33.0753 20.951 33.1119 21.3987C33.1493 21.8563 33.15 22.4458 33.15 23.2999V27.6999C33.15 28.554 33.1493 29.1435 33.1119 29.6011C33.0753 30.0488 33.0079 30.2949 32.9156 30.476C32.7095 30.8805 32.3806 31.2094 31.976 31.4156C31.795 31.5078 31.5488 31.5753 31.1011 31.6119C30.6435 31.6492 30.0541 31.6499 29.2 31.6499H18.8C17.9459 31.6499 17.3564 31.6492 16.8988 31.6119C16.4511 31.5753 16.205 31.5078 16.0239 31.4156C15.6193 31.2094 15.2904 30.8805 15.0843 30.476C14.992 30.2949 14.9246 30.0488 14.888 29.6011C14.8506 29.1435 14.85 28.554 14.85 27.6999V19.4999C14.85 18.5152 14.8573 18.1896 14.9232 17.9434C15.122 17.2015 15.7016 16.622 16.4435 16.4232ZM28.101 23.6011C28.433 23.2691 28.433 22.7309 28.101 22.399C27.7691 22.067 27.2309 22.067 26.8989 22.399L23 26.2979L21.601 24.899C21.2691 24.567 20.7309 24.567 20.3989 24.899C20.067 25.2309 20.067 25.7691 20.3989 26.1011L22.3989 28.1011C22.7309 28.433 23.2691 28.433 23.601 28.1011L28.101 23.6011Z" fill="#5B5858" fill-opacity="0.81"/>
</svg>
