<svg width="18" height="18" viewBox="0 0 18 18" fill="none" xmlns="http://www.w3.org/2000/svg">
<path fill-rule="evenodd" clip-rule="evenodd" d="M4.49998 1.68754L4.41313 1.68752C3.79966 1.68732 3.38104 1.68718 3.02205 1.78337C2.05148 2.04343 1.29337 2.80154 1.03331 3.77211C0.937117 4.1311 0.937255 4.54972 0.937457 5.16319L0.937476 5.25004V11.4V11.4241C0.93747 12.0337 0.937466 12.5255 0.969999 12.9236C1.0035 13.3336 1.07426 13.6937 1.24402 14.0269C1.51366 14.5561 1.94392 14.9864 2.47313 15.256C2.80629 15.4257 3.1664 15.4965 3.57638 15.53C3.97455 15.5625 4.46626 15.5625 5.07588 15.5625H5.09998H12.9H12.9241C13.5337 15.5625 14.0254 15.5625 14.4236 15.53C14.8336 15.4965 15.1937 15.4257 15.5268 15.256C16.056 14.9864 16.4863 14.5561 16.7559 14.0269C16.9257 13.6937 16.9965 13.3336 17.03 12.9236C17.0625 12.5255 17.0625 12.0338 17.0625 11.4241V11.4V8.10004V8.07595C17.0625 7.46632 17.0625 6.97462 17.03 6.57644C16.9965 6.16646 16.9257 5.80635 16.7559 5.47319C16.4863 4.94398 16.056 4.51373 15.5268 4.24408C15.1937 4.07433 14.8336 4.00356 14.4236 3.97006C14.0254 3.93753 13.5337 3.93753 12.9241 3.93754H12.9H11.2411C10.664 3.93754 10.4672 3.93392 10.288 3.89091C10.1158 3.84957 9.95123 3.78139 9.80024 3.68887C9.64315 3.5926 9.50138 3.45595 9.09331 3.04787L8.95214 2.90671L8.90682 2.86137C8.56138 2.51573 8.32227 2.27648 8.03752 2.10199C7.78588 1.94778 7.51154 1.83414 7.22456 1.76525C6.89983 1.68729 6.56157 1.68738 6.07291 1.68752L6.00881 1.68754H4.49998ZM3.31322 2.87004C3.50978 2.81737 3.76628 2.81254 4.49998 2.81254H6.00881C6.58591 2.81254 6.78278 2.81615 6.96194 2.85916C7.13412 2.9005 7.29873 2.96868 7.44971 3.06121C7.60681 3.15747 7.74857 3.29413 8.15664 3.7022L8.29781 3.84337L8.34312 3.8887C8.68857 4.23434 8.92768 4.47359 9.21243 4.64809C9.46407 4.80229 9.73842 4.91593 10.0254 4.98483C10.3501 5.06279 10.6884 5.06269 11.177 5.06255L11.2411 5.06254H12.9C13.5393 5.06254 13.985 5.06297 14.332 5.09132C14.6724 5.11914 14.8679 5.17098 15.0161 5.24646C15.3336 5.40825 15.5918 5.6664 15.7536 5.98393C15.829 6.13207 15.8809 6.32764 15.9087 6.66805C15.937 7.01502 15.9375 7.4607 15.9375 8.10004V11.4C15.9375 12.0394 15.937 12.4851 15.9087 12.832C15.8809 13.1724 15.829 13.368 15.7536 13.5161C15.5918 13.8337 15.3336 14.0918 15.0161 14.2536C14.8679 14.3291 14.6724 14.3809 14.332 14.4088C13.985 14.4371 13.5393 14.4375 12.9 14.4375H5.09998C4.46064 14.4375 4.01496 14.4371 3.66799 14.4088C3.32758 14.3809 3.132 14.3291 2.98387 14.2536C2.66634 14.0918 2.40819 13.8337 2.2464 13.5161C2.17092 13.368 2.11907 13.1724 2.09126 12.832C2.06291 12.4851 2.06248 12.0394 2.06248 11.4V5.25004C2.06248 4.51634 2.06731 4.25984 2.11998 4.06328C2.27601 3.48094 2.73088 3.02608 3.31322 2.87004ZM7.52272 7.47738C7.30305 7.25771 6.9469 7.25771 6.72723 7.47738C6.50756 7.69705 6.50756 8.05321 6.72723 8.27288L8.20448 9.75013L6.72723 11.2274C6.50756 11.4471 6.50756 11.8032 6.72723 12.0229C6.9469 12.2425 7.30305 12.2425 7.52272 12.0229L8.99998 10.5456L10.4772 12.0229C10.6969 12.2425 11.0531 12.2425 11.2727 12.0229C11.4924 11.8032 11.4924 11.4471 11.2727 11.2274L9.79547 9.75013L11.2727 8.27288C11.4924 8.05321 11.4924 7.69705 11.2727 7.47738C11.0531 7.25771 10.6969 7.25771 10.4772 7.47738L8.99998 8.95463L7.52272 7.47738Z" fill="#707878"/>
</svg>
