<svg width="18" height="18" viewBox="0 0 18 18" fill="none" xmlns="http://www.w3.org/2000/svg">
<path fill-rule="evenodd" clip-rule="evenodd" d="M9.63729 3.00006C9.63729 2.64798 9.35188 2.36256 8.99979 2.36256C8.64771 2.36256 8.36229 2.64798 8.36229 3.00006V8.961L6.45057 7.04928C6.20162 6.80032 5.79797 6.80032 5.54901 7.04928C5.30005 7.29824 5.30005 7.70188 5.54901 7.95084L8.54901 10.9508C8.66857 11.0704 8.83072 11.1376 8.99979 11.1376C9.16887 11.1376 9.33102 11.0704 9.45057 10.9508L12.4506 7.95084C12.6995 7.70188 12.6995 7.29824 12.4506 7.04928C12.2016 6.80032 11.798 6.80032 11.549 7.04928L9.63729 8.961V3.00006ZM2.88731 11.2501C2.88731 10.898 2.60189 10.6126 2.2498 10.6126C1.89772 10.6126 1.61231 10.898 1.61231 11.2501V12.1501L1.6123 12.177C1.6123 12.7842 1.61229 13.2785 1.64508 13.6798C1.67895 14.0944 1.75098 14.4655 1.92702 14.811C2.20386 15.3543 2.64559 15.796 3.18891 16.0729C3.53441 16.2489 3.90548 16.3209 4.3201 16.3548C4.72135 16.3876 5.21566 16.3876 5.82286 16.3876H5.82291H5.84981H12.1498H12.1767C12.7839 16.3876 13.2782 16.3876 13.6795 16.3548C14.0941 16.3209 14.4652 16.2489 14.8107 16.0729C15.354 15.796 15.7958 15.3543 16.0726 14.811C16.2486 14.4655 16.3207 14.0944 16.3545 13.6798C16.3873 13.2785 16.3873 12.7842 16.3873 12.1769V12.1501V11.2501C16.3873 10.898 16.1019 10.6126 15.7498 10.6126C15.3977 10.6126 15.1123 10.898 15.1123 11.2501V12.1501C15.1123 12.7907 15.1118 13.2328 15.0838 13.576C15.0563 13.9117 15.0057 14.0963 14.9366 14.2321C14.782 14.5356 14.5353 14.7822 14.2319 14.9368C14.0961 15.006 13.9115 15.0566 13.5757 15.084C13.2325 15.1121 12.7904 15.1126 12.1498 15.1126H5.84981C5.20923 15.1126 4.76713 15.1121 4.42392 15.084C4.08815 15.0566 3.90355 15.006 3.76775 14.9368C3.46433 14.7822 3.21765 14.5356 3.06306 14.2321C2.99386 14.0963 2.94328 13.9117 2.91584 13.576C2.8878 13.2328 2.88731 12.7907 2.88731 12.1501V11.2501Z" fill="#ABB5B1"/>
</svg>
