<svg width="18" height="18" viewBox="0 0 18 18" fill="none" xmlns="http://www.w3.org/2000/svg">
<path fill-rule="evenodd" clip-rule="evenodd" d="M12.9197 3.73316C13.2487 3.43412 13.7511 3.43413 14.0801 3.73318C14.0924 3.74442 14.1092 3.76092 14.1741 3.82584C14.239 3.89076 14.2555 3.90752 14.2668 3.91989C14.5658 4.24885 14.5658 4.75122 14.2667 5.08018C14.2555 5.09255 14.239 5.10931 14.1741 5.17422L13.5904 5.7579C12.8492 5.75828 12.2416 5.1507 12.242 4.40954L12.8257 3.82582C12.8906 3.76091 12.9074 3.7444 12.9197 3.73316ZM11.1879 5.46361L5.14073 11.5107C4.77664 11.8748 4.64552 12.0086 4.54043 12.1548C4.44097 12.2932 4.35676 12.4419 4.28929 12.5984C4.218 12.7637 4.17071 12.945 4.04582 13.4445L3.87598 14.1239L4.55538 13.954C5.05489 13.8292 5.23617 13.7819 5.40151 13.7106C5.55798 13.6431 5.70669 13.5589 5.84505 13.4594C5.99124 13.3543 6.12507 13.2232 6.48915 12.8592L12.5363 6.812C11.9366 6.54713 11.4528 6.06326 11.1879 5.46361ZM14.9377 2.78973C14.1224 2.04862 12.8774 2.0486 12.0621 2.7897C12.0241 2.82423 11.984 2.86439 11.9342 2.91424L11.9241 2.92426L4.23917 10.6091L4.20303 10.6453L4.20303 10.6453C3.88756 10.9607 3.67807 11.1701 3.50516 11.4106C3.35203 11.6236 3.22238 11.8526 3.1185 12.0935C3.00121 12.3655 2.92941 12.6529 2.82128 13.0857L2.80889 13.1353L2.38135 14.8454C2.32704 15.0627 2.3907 15.2925 2.54904 15.4508C2.70738 15.6092 2.93719 15.6728 3.15443 15.6185L4.86461 15.191L4.91419 15.1786L4.91421 15.1786C5.34697 15.0705 5.63433 14.9987 5.90635 14.8814C6.14726 14.7775 6.37623 14.6478 6.58926 14.4947C6.82979 14.3218 7.0392 14.1123 7.35457 13.7969L7.35459 13.7968L7.39071 13.7607L15.0756 6.07578L15.0857 6.06575L15.0858 6.06568C15.1356 6.01589 15.1757 5.97576 15.2102 5.9378C15.9513 5.12254 15.9513 3.87756 15.2102 3.06229C15.1757 3.0243 15.1355 2.98415 15.0857 2.93433L15.0757 2.9243L15.0657 2.91428C15.0158 2.86443 14.9757 2.82427 14.9377 2.78973Z" fill="#161918"/>
</svg>
