<svg width="22" height="21" viewBox="0 0 22 21" fill="none" xmlns="http://www.w3.org/2000/svg">
<path d="M19.25 0H2.75C2.15326 0 1.58097 0.237053 1.15901 0.65901C0.737053 1.08097 0.5 1.65326 0.5 2.25L0.5 18.75C0.5 19.3467 0.737053 19.919 1.15901 20.341C1.58097 20.7629 2.15326 21 2.75 21H9.18359V13.8605H6.23047V10.5H9.18359V7.93875C9.18359 5.02547 10.918 3.41625 13.5744 3.41625C14.8466 3.41625 16.1769 3.64313 16.1769 3.64313V6.5025H14.7111C13.2669 6.5025 12.8164 7.39875 12.8164 8.31797V10.5H16.0405L15.5248 13.8605H12.8164V21H19.25C19.8467 21 20.419 20.7629 20.841 20.341C21.2629 19.919 21.5 19.3467 21.5 18.75V2.25C21.5 1.65326 21.2629 1.08097 20.841 0.65901C20.419 0.237053 19.8467 0 19.25 0Z" fill="#2792A0"/>
</svg>
