<svg width="18" height="15" viewBox="0 0 18 15" fill="none" xmlns="http://www.w3.org/2000/svg">
<path fill-rule="evenodd" clip-rule="evenodd" d="M4.40597 0.612451C4.4368 0.612464 4.46809 0.612477 4.49985 0.612477H6.00869C6.03213 0.612477 6.05525 0.612468 6.07807 0.61246C6.56145 0.612286 6.90832 0.612161 7.24195 0.692258C7.53658 0.762993 7.81824 0.87966 8.07659 1.03798C8.36914 1.21725 8.61432 1.46261 8.956 1.80454C8.97213 1.82068 8.98847 1.83704 9.00505 1.85361L9.14622 1.99478C9.55682 2.40538 9.69154 2.53431 9.83931 2.62486C9.98358 2.71327 10.1409 2.77842 10.3054 2.81792C10.4739 2.85838 10.6604 2.86248 11.241 2.86248H12.8999L12.9268 2.86248C13.534 2.86247 14.0283 2.86246 14.4296 2.89525C14.8442 2.92912 15.2153 3.00115 15.5608 3.1772C16.1041 3.45403 16.5458 3.89576 16.8226 4.43908C16.9987 4.78458 17.0707 5.15565 17.1046 5.57027C17.1374 5.97154 17.1374 6.46588 17.1374 7.07312V7.09998V10.4V10.4268C17.1374 11.0341 17.1374 11.5284 17.1046 11.9297C17.0707 12.3443 16.9987 12.7154 16.8226 13.0609C16.5458 13.6042 16.1041 14.0459 15.5608 14.3228C15.2153 14.4988 14.8442 14.5708 14.4296 14.6047C14.0283 14.6375 13.5339 14.6375 12.9267 14.6375H12.8999H5.09985H5.073C4.46576 14.6375 3.97142 14.6375 3.57015 14.6047C3.15553 14.5708 2.78446 14.4988 2.43896 14.3228C1.89564 14.0459 1.45391 13.6042 1.17707 13.0609C1.00103 12.7154 0.929002 12.3443 0.895126 11.9297C0.862341 11.5284 0.862347 11.0341 0.862354 10.4269L0.862355 10.4V4.24998C0.862355 4.21821 0.862342 4.18692 0.862329 4.15609C0.862081 3.54983 0.861905 3.12151 0.960744 2.75264C1.22774 1.75618 2.00606 0.977865 3.00251 0.710866C3.37139 0.612027 3.7997 0.612203 4.40597 0.612451ZM4.49985 1.88748C3.76133 1.88748 3.51713 1.89295 3.33251 1.94242C2.77605 2.09152 2.3414 2.52617 2.1923 3.08263C2.14283 3.26725 2.13735 3.51145 2.13735 4.24998V10.4C2.13735 11.0406 2.13785 11.4826 2.16589 11.8259C2.19333 12.1616 2.24391 12.3462 2.31311 12.482C2.4677 12.7854 2.71438 13.0321 3.01779 13.1867C3.1536 13.2559 3.3382 13.3065 3.67397 13.3339C4.01718 13.362 4.45928 13.3625 5.09985 13.3625H12.8999C13.5404 13.3625 13.9825 13.362 14.3257 13.3339C14.6615 13.3065 14.8461 13.2559 14.9819 13.1867C15.2853 13.0321 15.532 12.7854 15.6866 12.482C15.7558 12.3462 15.8064 12.1616 15.8338 11.8259C15.8619 11.4826 15.8624 11.0406 15.8624 10.4V7.09998C15.8624 6.4594 15.8619 6.01731 15.8338 5.67409C15.8064 5.33833 15.7558 5.15372 15.6866 5.01792C15.532 4.71451 15.2853 4.46782 14.9819 4.31323C14.8461 4.24403 14.6615 4.19345 14.3257 4.16601C13.9825 4.13797 13.5404 4.13748 12.8999 4.13748H11.241C11.2176 4.13748 11.1945 4.13748 11.1716 4.13749C10.6883 4.13767 10.3414 4.13779 10.0078 4.05769C9.71313 3.98696 9.43147 3.87029 9.17312 3.71198C8.88057 3.5327 8.63539 3.28734 8.29371 2.94542C8.27758 2.92928 8.26123 2.91292 8.24466 2.89634L8.10349 2.75517C7.69289 2.34458 7.55817 2.21564 7.4104 2.12509C7.26613 2.03668 7.10884 1.97153 6.9443 1.93203C6.77579 1.89157 6.58936 1.88748 6.00869 1.88748H4.49985Z" fill="white"/>
</svg>
