<svg width="123" height="45" viewBox="0 0 123 45" fill="none" xmlns="http://www.w3.org/2000/svg">
<rect width="45" height="45" rx="22.5" fill="white"/>
<path d="M22.5114 13.9766C22.2963 16.9973 17.5367 17.0705 16.3206 20.9293C16.1273 21.5629 16.0203 22.2197 16.0024 22.8819C15.1404 21.4746 14.5488 20.0703 14.5488 18.8722C14.5484 17.3583 14.9802 15.8758 15.7935 14.5989C16.6067 13.322 17.7676 12.3038 19.1396 11.664C20.2138 11.3249 21.1445 11.3847 21.7331 11.8523C22.3426 12.3348 22.5637 13.2356 22.5114 13.9766Z" fill="url(#paint0_linear)"/>
<path d="M27.7098 16.098C26.797 20.151 21.1156 20.1913 19.5844 24.1965C19.305 24.9255 19.1227 25.8966 19.305 27.1783C18.1607 25.9085 16.9267 24.3922 16.002 22.8818C16.0198 22.2196 16.1269 21.5629 16.3202 20.9293C17.5362 17.0705 22.2958 16.9973 22.5109 13.9766C22.5632 13.2356 22.3421 12.3348 21.7326 11.8522C21.144 11.3847 20.2133 11.3249 19.1392 11.664C20.3817 11.0856 21.7525 10.8376 23.1189 10.9441C24.4853 11.0506 25.8011 11.508 26.9389 12.272V12.2735C28.1819 13.8541 27.7322 15.9964 27.7098 16.098Z" fill="url(#paint1_linear)"/>
<path d="M30.4533 18.8722C29.7063 23.8036 22.2083 25.3483 22.2845 29.2295C22.2896 29.465 22.3217 29.699 22.3801 29.9272C22.0918 29.9 21.8214 29.7751 21.6138 29.5731C21.0207 28.998 20.1916 28.1629 19.3057 27.1799V27.1784C19.1234 25.8966 19.3057 24.9255 19.585 24.1965C21.1163 20.1913 26.7976 20.151 27.7104 16.098C27.7328 15.9964 28.1825 13.8541 26.9396 12.2736C28.0219 13.0005 28.9086 13.9827 29.5214 15.1336C30.1342 16.2844 30.4543 17.5684 30.4533 18.8722Z" fill="url(#paint2_linear)"/>
<path d="M30.4525 18.8722C30.4525 22.3515 25.4613 27.5593 23.3878 29.5731C23.2558 29.7018 23.0974 29.8002 22.9234 29.8614C22.7495 29.9225 22.5644 29.945 22.3809 29.9272H22.3794C22.321 29.699 22.2889 29.465 22.2838 29.2295C22.2076 25.3483 29.7056 23.8036 30.4525 18.8722Z" fill="url(#paint3_linear)"/>
<path d="M21.0122 31.3854H23.9884C24.038 31.3854 24.0871 31.3951 24.1329 31.4141C24.1787 31.4331 24.2203 31.4609 24.2553 31.4959C24.2904 31.531 24.3182 31.5726 24.3372 31.6184C24.3561 31.6642 24.3659 31.7133 24.3659 31.7628V32.2145C24.3659 32.7093 24.1694 33.1838 23.8195 33.5337C23.4696 33.8835 22.9951 34.0801 22.5003 34.0801H22.5003C22.0056 34.0801 21.531 33.8835 21.1812 33.5337C20.8313 33.1838 20.6348 32.7093 20.6348 32.2145V31.7628C20.6348 31.7133 20.6445 31.6642 20.6635 31.6184C20.6825 31.5726 20.7103 31.531 20.7453 31.4959C20.7804 31.4609 20.822 31.4331 20.8678 31.4141C20.9136 31.3951 20.9627 31.3854 21.0122 31.3854Z" fill="url(#paint4_linear)"/>
<path d="M61.194 20.378C61.494 19.91 61.908 19.532 62.436 19.244C62.964 18.956 63.582 18.812 64.29 18.812C65.118 18.812 65.868 19.022 66.54 19.442C67.212 19.862 67.74 20.462 68.124 21.242C68.52 22.022 68.718 22.928 68.718 23.96C68.718 24.992 68.52 25.904 68.124 26.696C67.74 27.476 67.212 28.082 66.54 28.514C65.868 28.934 65.118 29.144 64.29 29.144C63.594 29.144 62.976 29 62.436 28.712C61.908 28.424 61.494 28.052 61.194 27.596V33.788H58.116L58.116 18.956H61.194V20.378ZM65.586 23.96C65.586 23.192 65.37 22.592 64.938 22.16C64.518 21.716 63.996 21.494 63.372 21.494C62.76 21.494 62.238 21.716 61.806 22.16C61.386 22.604 61.176 23.21 61.176 23.978C61.176 24.746 61.386 25.352 61.806 25.796C62.238 26.24 62.76 26.462 63.372 26.462C63.984 26.462 64.506 26.24 64.938 25.796C65.37 25.34 65.586 24.728 65.586 23.96ZM73.4108 15.68V29H70.3328V15.68L73.4108 15.68ZM85.1094 23.816C85.1094 24.104 85.0914 24.404 85.0554 24.716L78.0894 24.716C78.1374 25.34 78.3354 25.82 78.6834 26.156C79.0434 26.48 79.4814 26.642 79.9974 26.642C80.7654 26.642 81.2994 26.318 81.5994 25.67H84.8754C84.7074 26.33 84.4014 26.924 83.9574 27.452C83.5254 27.98 82.9794 28.394 82.3194 28.694C81.6594 28.994 80.9214 29.144 80.1054 29.144C79.1214 29.144 78.2454 28.934 77.4774 28.514C76.7094 28.094 76.1094 27.494 75.6774 26.714C75.2454 25.934 75.0294 25.022 75.0294 23.978C75.0294 22.934 75.2394 22.022 75.6594 21.242C76.0914 20.462 76.6914 19.862 77.4594 19.442C78.2274 19.022 79.1094 18.812 80.1054 18.812C81.0774 18.812 81.9414 19.016 82.6974 19.424C83.4534 19.832 84.0414 20.414 84.4614 21.17C84.8934 21.926 85.1094 22.808 85.1094 23.816ZM81.9594 23.006C81.9594 22.478 81.7794 22.058 81.4194 21.746C81.0594 21.434 80.6094 21.278 80.0694 21.278C79.5534 21.278 79.1154 21.428 78.7554 21.728C78.4074 22.028 78.1914 22.454 78.1074 23.006H81.9594ZM92.8532 18.848C94.0292 18.848 94.9652 19.232 95.6612 20C96.3692 20.756 96.7232 21.8 96.7232 23.132V29H93.6632V23.546C93.6632 22.874 93.4892 22.352 93.1412 21.98C92.7932 21.608 92.3252 21.422 91.7372 21.422C91.1492 21.422 90.6812 21.608 90.3332 21.98C89.9852 22.352 89.8112 22.874 89.8112 23.546V29H86.7332V18.956H89.8112V20.288C90.1232 19.844 90.5432 19.496 91.0712 19.244C91.5992 18.98 92.1932 18.848 92.8532 18.848ZM104.46 26.39V29H102.894C101.778 29 100.908 28.73 100.284 28.19C99.6601 27.638 99.3481 26.744 99.3481 25.508V21.512H98.1241V18.956H99.3481V16.508H102.426V18.956H104.442V21.512H102.426V25.544C102.426 25.844 102.498 26.06 102.642 26.192C102.786 26.324 103.026 26.39 103.362 26.39H104.46ZM107.723 17.912C107.183 17.912 106.739 17.756 106.391 17.444C106.055 17.12 105.887 16.724 105.887 16.256C105.887 15.776 106.055 15.38 106.391 15.068C106.739 14.744 107.183 14.582 107.723 14.582C108.251 14.582 108.683 14.744 109.019 15.068C109.367 15.38 109.541 15.776 109.541 16.256C109.541 16.724 109.367 17.12 109.019 17.444C108.683 17.756 108.251 17.912 107.723 17.912ZM109.253 18.956V29H106.175V18.956H109.253ZM116.523 21.512H114.867V29L111.789 29V21.512H110.673V18.956H111.789V18.668C111.789 17.432 112.143 16.496 112.851 15.86C113.559 15.212 114.597 14.888 115.965 14.888C116.193 14.888 116.361 14.894 116.469 14.906V17.516C115.881 17.48 115.467 17.564 115.227 17.768C114.987 17.972 114.867 18.338 114.867 18.866V18.956H116.523V21.512ZM119.518 17.912C118.978 17.912 118.534 17.756 118.186 17.444C117.85 17.12 117.682 16.724 117.682 16.256C117.682 15.776 117.85 15.38 118.186 15.068C118.534 14.744 118.978 14.582 119.518 14.582C120.046 14.582 120.478 14.744 120.814 15.068C121.162 15.38 121.336 15.776 121.336 16.256C121.336 16.724 121.162 17.12 120.814 17.444C120.478 17.756 120.046 17.912 119.518 17.912ZM121.048 18.956V29H117.97V18.956H121.048Z" fill="#2792A0"/>
<defs>
<linearGradient id="paint0_linear" x1="15.0998" y1="15.9499" x2="21.1075" y2="18.1365" gradientUnits="userSpaceOnUse">
<stop stop-color="#93D2C0"/>
<stop offset="1" stop-color="#007A91"/>
</linearGradient>
<linearGradient id="paint1_linear" x1="16.818" y1="17.321" x2="25.6292" y2="20.6615" gradientUnits="userSpaceOnUse">
<stop stop-color="#93D2C0"/>
<stop offset="1" stop-color="#007A91"/>
</linearGradient>
<linearGradient id="paint2_linear" x1="20.0081" y1="19.2239" x2="28.6365" y2="22.0874" gradientUnits="userSpaceOnUse">
<stop stop-color="#93D2C0"/>
<stop offset="1" stop-color="#007A91"/>
</linearGradient>
<linearGradient id="paint3_linear" x1="22.8479" y1="23.2269" x2="28.9189" y2="25.5681" gradientUnits="userSpaceOnUse">
<stop stop-color="#93D2C0"/>
<stop offset="1" stop-color="#007A91"/>
</linearGradient>
<linearGradient id="paint4_linear" x1="20.8927" y1="32.4463" x2="22.9845" y2="33.9586" gradientUnits="userSpaceOnUse">
<stop stop-color="#93D2C0"/>
<stop offset="1" stop-color="#007A91"/>
</linearGradient>
</defs>
</svg>
