<svg width="26" height="18" viewBox="0 0 26 18" fill="none" xmlns="http://www.w3.org/2000/svg">
<g filter="url(#filter0_dd_1_32)">
<path d="M14.995 3.97813H17.4977L17.498 6.66771L18.7668 4.85301V3.33184C18.7668 3.23893 18.7267 3.14983 18.6553 3.08383L15.4187 0.102643C15.3474 0.0369857 15.2506 0 15.1495 0H5.14211C4.51241 0 4 0.471771 4 1.05184V16.9482C4 17.5282 4.51236 18 5.14211 18H17.6246C18.2543 18 18.7667 17.5282 18.7667 16.9482V12.435L17.4981 14.223L17.4983 16.8311H5.26899V1.16889H14.5236V3.5439C14.5236 3.78386 14.7346 3.97813 14.995 3.97813Z" fill="#707878"/>
<path d="M20.1838 8.3624L19.6594 8.04681C19.5737 7.99533 19.4591 8.0174 19.4032 8.09626L16.5795 12.0762L16.0365 11.7494L18.8602 7.76943C18.9162 7.69053 18.8922 7.58498 18.8066 7.53346L18.2821 7.21782C18.1965 7.16631 18.0818 7.18842 18.026 7.26728L13.7981 13.2267C13.7801 13.252 13.7698 13.2813 13.7681 13.3115L13.6576 15.3797C13.6544 15.4401 13.6862 15.4977 13.7412 15.5307C13.7963 15.5638 13.8663 15.5675 13.925 15.5406L15.937 14.6169C15.9665 14.6035 15.9914 14.5829 16.0095 14.5575L20.2373 8.59816C20.2934 8.51956 20.2693 8.41396 20.1838 8.3624Z" fill="#707878"/>
<path d="M21.9161 5.92049L20.0146 4.77586C19.9291 4.72439 19.8143 4.74651 19.7584 4.82532L18.476 6.63299C18.4201 6.71185 18.444 6.81754 18.5297 6.86905L20.4312 8.01359C20.5167 8.06511 20.6315 8.04299 20.6874 7.96414L21.9698 6.15651C22.0258 6.07765 22.0017 5.97201 21.9161 5.92049Z" fill="#707878"/>
<path d="M7.11722 3.74838H10.7464C11.0033 3.74838 11.2116 3.55646 11.2116 3.31981C11.2116 3.08315 11.0033 2.89124 10.7464 2.89124H7.11722C6.86025 2.89124 6.65195 3.08315 6.65195 3.31981C6.65195 3.55646 6.86034 3.74838 7.11722 3.74838Z" fill="#707878"/>
<path d="M14.0033 5.46266C14.0033 5.226 13.7949 5.03409 13.538 5.03409H7.11722C6.86025 5.03409 6.65195 5.226 6.65195 5.46266C6.65195 5.69932 6.86025 5.89123 7.11722 5.89123H13.538C13.795 5.89123 14.0033 5.69932 14.0033 5.46266Z" fill="#707878"/>
<path d="M7.11722 8.03408H10.7464C11.0033 8.03408 11.2116 7.84217 11.2116 7.60551C11.2116 7.36886 11.0033 7.17694 10.7464 7.17694H7.11722C6.86025 7.17694 6.65195 7.36886 6.65195 7.60551C6.65195 7.84217 6.86034 8.03408 7.11722 8.03408Z" fill="#707878"/>
<path d="M7.11722 10.1769H10.7464C11.0033 10.1769 11.2116 9.98502 11.2116 9.74837C11.2116 9.51175 11.0033 9.31979 10.7464 9.31979H7.11722C6.86025 9.31979 6.65195 9.51175 6.65195 9.74837C6.65195 9.98502 6.86034 10.1769 7.11722 10.1769Z" fill="#707878"/>
<path d="M7.31415 15.7155C7.22356 15.8233 7.38697 15.9761 7.47867 15.8669C7.76775 15.5229 8.00648 15.1524 8.20585 14.7614C8.33026 14.8333 8.49362 14.8189 8.62762 14.7702C8.82076 14.7 8.98449 14.5646 9.1404 14.4421C9.23257 14.3697 9.33986 14.25 9.46744 14.2386C9.56487 14.23 9.69645 14.3022 9.79383 14.3176C10.0483 14.3576 10.3455 14.2897 10.5912 14.2338C10.8243 14.1808 11.0973 14.0969 11.2346 13.9025C11.3166 13.7862 11.1151 13.6789 11.0337 13.7944C10.9238 13.9501 10.6556 13.9986 10.4743 14.0398C10.2616 14.0883 10.0147 14.1361 9.79541 14.1016C9.63015 14.0757 9.49648 13.9837 9.32656 14.0534C9.09894 14.1468 8.92507 14.3432 8.72407 14.4757C8.63413 14.535 8.53136 14.592 8.41885 14.6001C8.37256 14.6034 8.33482 14.5877 8.30346 14.5617C8.32822 14.5088 8.35278 14.4556 8.37619 14.402C8.60305 13.8833 8.70565 13.3565 8.81094 12.81C8.86445 12.5324 8.95345 12.0948 8.5214 12.0681C8.13964 12.0447 7.80971 12.5519 7.68772 12.8192C7.57861 13.0582 7.56647 13.3359 7.5748 13.5912C7.57996 13.7503 7.64212 13.9155 7.68795 14.0799C7.32159 14.1341 6.99869 14.4749 7.05527 14.8128C7.11096 15.1453 7.56233 14.9736 7.7309 14.8506C7.90151 14.7261 7.95674 14.5705 7.95856 14.4028C7.99257 14.4544 8.021 14.5164 8.0504 14.5743C7.85382 14.9805 7.60737 15.3665 7.31415 15.7155ZM7.72192 14.5026C7.68749 14.6439 7.49333 14.7834 7.34044 14.7965C7.22016 14.8068 7.29354 14.6089 7.31731 14.5647C7.39194 14.4257 7.57684 14.335 7.73229 14.2959C7.73955 14.3657 7.73839 14.4348 7.72192 14.5026ZM7.91622 14.0877C7.87662 13.9173 7.82167 13.7461 7.80743 13.5912C7.77989 13.2923 7.83754 12.9791 7.99848 12.7176C8.09902 12.5543 8.30398 12.3039 8.5214 12.2825C8.71556 12.2634 8.59715 12.6984 8.58035 12.7858C8.52838 13.0555 8.4913 13.3233 8.41885 13.5899C8.35157 13.8375 8.26634 14.0828 8.16439 14.3226C8.11019 14.1983 8.03961 14.1188 7.91622 14.0877Z" fill="#707878"/>
</g>
<defs>
<filter id="filter0_dd_1_32" x="0" y="0" width="26" height="26" filterUnits="userSpaceOnUse" color-interpolation-filters="sRGB">
<feFlood flood-opacity="0" result="BackgroundImageFix"/>
<feColorMatrix in="SourceAlpha" type="matrix" values="0 0 0 0 0 0 0 0 0 0 0 0 0 0 0 0 0 0 127 0" result="hardAlpha"/>
<feOffset dy="4"/>
<feGaussianBlur stdDeviation="2"/>
<feComposite in2="hardAlpha" operator="out"/>
<feColorMatrix type="matrix" values="0 0 0 0 0 0 0 0 0 0 0 0 0 0 0 0 0 0 0.25 0"/>
<feBlend mode="normal" in2="BackgroundImageFix" result="effect1_dropShadow_1_32"/>
<feColorMatrix in="SourceAlpha" type="matrix" values="0 0 0 0 0 0 0 0 0 0 0 0 0 0 0 0 0 0 127 0" result="hardAlpha"/>
<feOffset dy="4"/>
<feGaussianBlur stdDeviation="2"/>
<feComposite in2="hardAlpha" operator="out"/>
<feColorMatrix type="matrix" values="0 0 0 0 0 0 0 0 0 0 0 0 0 0 0 0 0 0 0.25 0"/>
<feBlend mode="normal" in2="effect1_dropShadow_1_32" result="effect2_dropShadow_1_32"/>
<feBlend mode="normal" in="SourceGraphic" in2="effect2_dropShadow_1_32" result="shape"/>
</filter>
</defs>
</svg>
