<svg width="18" height="15" viewBox="0 0 18 15" fill="none" xmlns="http://www.w3.org/2000/svg">
<path fill-rule="evenodd" clip-rule="evenodd" d="M4.49998 0.687537L4.41313 0.687518C3.79966 0.687316 3.38104 0.687178 3.02205 0.783371C2.05148 1.04343 1.29337 1.80154 1.03331 2.77211C0.937117 3.1311 0.937255 3.54972 0.937457 4.16319L0.937476 4.25004V10.4V10.4241C0.93747 11.0337 0.937466 11.5255 0.969999 11.9236C1.0035 12.3336 1.07426 12.6937 1.24402 13.0269C1.51366 13.5561 1.94392 13.9864 2.47313 14.256C2.80629 14.4257 3.1664 14.4965 3.57638 14.53C3.97455 14.5625 4.46626 14.5625 5.07588 14.5625H5.09998H12.9H12.9241C13.5337 14.5625 14.0254 14.5625 14.4236 14.53C14.8336 14.4965 15.1937 14.4257 15.5268 14.256C16.056 13.9864 16.4863 13.5561 16.7559 13.0269C16.9257 12.6937 16.9965 12.3336 17.03 11.9236C17.0625 11.5255 17.0625 11.0338 17.0625 10.4241V10.4V7.10004V7.07595C17.0625 6.46632 17.0625 5.97462 17.03 5.57644C16.9965 5.16646 16.9257 4.80635 16.7559 4.47319C16.4863 3.94398 16.056 3.51373 15.5268 3.24408C15.1937 3.07433 14.8336 3.00356 14.4236 2.97006C14.0254 2.93753 13.5337 2.93753 12.9241 2.93754H12.9H11.2411C10.664 2.93754 10.4672 2.93392 10.288 2.89091C10.1158 2.84957 9.95123 2.78139 9.80024 2.68887C9.64315 2.5926 9.50138 2.45595 9.09331 2.04787L8.95214 1.90671L8.90682 1.86137C8.56138 1.51573 8.32227 1.27648 8.03752 1.10199C7.78588 0.947781 7.51154 0.834144 7.22456 0.765247C6.89983 0.687285 6.56157 0.687383 6.07291 0.687525L6.00881 0.687537H4.49998ZM3.31322 1.87004C3.50978 1.81737 3.76628 1.81254 4.49998 1.81254H6.00881C6.58591 1.81254 6.78278 1.81615 6.96194 1.85916C7.13412 1.9005 7.29873 1.96868 7.44971 2.06121C7.60681 2.15747 7.74857 2.29413 8.15664 2.7022L8.29781 2.84337L8.34312 2.8887C8.68857 3.23434 8.92768 3.47359 9.21243 3.64809C9.46407 3.80229 9.73842 3.91593 10.0254 3.98483C10.3501 4.06279 10.6884 4.06269 11.177 4.06255L11.2411 4.06254H12.9C13.5393 4.06254 13.985 4.06297 14.332 4.09132C14.6724 4.11914 14.8679 4.17098 15.0161 4.24646C15.3336 4.40825 15.5918 4.6664 15.7536 4.98393C15.829 5.13207 15.8809 5.32764 15.9087 5.66805C15.937 6.01502 15.9375 6.4607 15.9375 7.10004V10.4C15.9375 11.0394 15.937 11.4851 15.9087 11.832C15.8809 12.1724 15.829 12.368 15.7536 12.5161C15.5918 12.8337 15.3336 13.0918 15.0161 13.2536C14.8679 13.3291 14.6724 13.3809 14.332 13.4088C13.985 13.4371 13.5393 13.4375 12.9 13.4375H5.09998C4.46064 13.4375 4.01496 13.4371 3.66799 13.4088C3.32758 13.3809 3.132 13.3291 2.98387 13.2536C2.66634 13.0918 2.40819 12.8337 2.2464 12.5161C2.17092 12.368 2.11907 12.1724 2.09126 11.832C2.06291 11.4851 2.06248 11.0394 2.06248 10.4V4.25004C2.06248 3.51634 2.06731 3.25984 2.11998 3.06328C2.27601 2.48094 2.73088 2.02608 3.31322 1.87004Z" fill="#707878"/>
<path d="M9.66342 11C9.66342 11.4142 9.32764 11.75 8.91342 11.75C8.49921 11.75 8.16342 11.4142 8.16342 11C8.16342 10.5858 8.49921 10.25 8.91342 10.25C9.32764 10.25 9.66342 10.5858 9.66342 11Z" fill="#707878"/>
<path d="M9.55092 5.75002C9.55092 5.39794 9.2655 5.11252 8.91342 5.11252C8.56134 5.11252 8.27592 5.39794 8.27592 5.75002V8.75002C8.27592 9.1021 8.56134 9.38752 8.91342 9.38752C9.2655 9.38752 9.55092 9.1021 9.55092 8.75002V5.75002Z" fill="#707878"/>
</svg>
