<svg width="22" height="21" viewBox="0 0 22 21" fill="none" xmlns="http://www.w3.org/2000/svg">
<path d="M11 7.99969C10.5055 7.99987 10.0222 8.14667 9.61116 8.42152C9.20011 8.69637 8.87978 9.08693 8.69068 9.54382C8.50158 10.0007 8.4522 10.5034 8.54878 10.9884C8.64536 11.4733 8.88357 11.9187 9.23328 12.2683C9.58299 12.6179 10.0285 12.8559 10.5135 12.9523C10.9985 13.0487 11.5012 12.9992 11.958 12.8099C12.4148 12.6206 12.8052 12.3002 13.0799 11.889C13.3546 11.4778 13.5012 10.9945 13.5012 10.5C13.5008 9.83687 13.237 9.20105 12.768 8.73223C12.2991 8.26341 11.6631 7.99994 11 7.99969ZM16.8458 6.07781C16.7185 5.75524 16.5263 5.46226 16.2811 5.21705C16.0359 4.97184 15.7429 4.77963 15.4203 4.65234C14.4359 4.26375 12.0922 4.35094 11 4.35094C9.90781 4.35094 7.56641 4.26047 6.57922 4.65234C6.25664 4.77963 5.96367 4.97184 5.71846 5.21705C5.47325 5.46226 5.28104 5.75524 5.15375 6.07781C4.76562 7.06219 4.85234 9.40828 4.85234 10.4995C4.85234 11.5908 4.76562 13.9341 5.15562 14.9217C5.28291 15.2443 5.47512 15.5373 5.72033 15.7825C5.96554 16.0277 6.25852 16.2199 6.58109 16.3472C7.56547 16.7358 9.90922 16.6486 11.0019 16.6486C12.0945 16.6486 14.435 16.7391 15.4222 16.3472C15.7448 16.2199 16.0377 16.0277 16.283 15.7825C16.5282 15.5373 16.7204 15.2443 16.8477 14.9217C17.2391 13.9373 17.1491 11.5913 17.1491 10.5C17.1491 9.40875 17.2391 7.06594 16.8477 6.07828L16.8458 6.07781ZM11 14.3438C10.2398 14.3438 9.49663 14.1183 8.86453 13.696C8.23243 13.2736 7.73976 12.6733 7.44884 11.9709C7.15791 11.2686 7.08179 10.4957 7.23011 9.75012C7.37842 9.00451 7.7445 8.31962 8.28206 7.78206C8.81962 7.2445 9.50451 6.87842 10.2501 6.73011C10.9957 6.58179 11.7686 6.65791 12.4709 6.94884C13.1733 7.23976 13.7736 7.73243 14.196 8.36453C14.6183 8.99663 14.8438 9.73978 14.8438 10.5C14.8444 11.0049 14.7454 11.505 14.5524 11.9717C14.3595 12.4383 14.0764 12.8623 13.7193 13.2193C13.3623 13.5764 12.9383 13.8595 12.4717 14.0524C12.005 14.2454 11.5049 14.3444 11 14.3438ZM15.0022 7.39219C14.8247 7.39228 14.6512 7.33974 14.5036 7.24121C14.356 7.14268 14.2409 7.0026 14.173 6.83866C14.105 6.67473 14.0871 6.49432 14.1217 6.32026C14.1563 6.14619 14.2417 5.98628 14.3671 5.86076C14.4926 5.73524 14.6525 5.64974 14.8265 5.61509C15.0006 5.58043 15.181 5.59817 15.3449 5.66606C15.5089 5.73395 15.6491 5.84895 15.7477 5.9965C15.8463 6.14405 15.8989 6.31753 15.8989 6.495C15.8994 6.61285 15.8766 6.72964 15.8319 6.83866C15.7871 6.94769 15.7213 7.04681 15.6382 7.13034C15.555 7.21387 15.4562 7.28016 15.3474 7.32542C15.2386 7.37067 15.1219 7.394 15.0041 7.39406L15.0022 7.39219ZM19.25 0H2.75C2.15326 0 1.58097 0.237053 1.15901 0.65901C0.737053 1.08097 0.5 1.65326 0.5 2.25L0.5 18.75C0.5 19.3467 0.737053 19.919 1.15901 20.341C1.58097 20.7629 2.15326 21 2.75 21H19.25C19.8467 21 20.419 20.7629 20.841 20.341C21.2629 19.919 21.5 19.3467 21.5 18.75V2.25C21.5 1.65326 21.2629 1.08097 20.841 0.65901C20.419 0.237053 19.8467 0 19.25 0ZM18.4475 13.5938C18.387 14.7952 18.1128 15.8597 17.2358 16.7344C16.3588 17.6091 15.2952 17.8889 14.0952 17.9461C12.8572 18.0159 9.14563 18.0159 7.90766 17.9461C6.70625 17.8856 5.64547 17.6109 4.76703 16.7344C3.88859 15.8578 3.6125 14.7928 3.55531 13.5938C3.48547 12.3553 3.48547 8.64328 3.55531 7.40625C3.61578 6.20484 3.88672 5.14031 4.76703 4.26562C5.64734 3.39094 6.71094 3.11438 7.90766 3.05719C9.14563 2.98734 12.8572 2.98734 14.0952 3.05719C15.2966 3.11766 16.3606 3.39234 17.2358 4.26891C18.1109 5.14547 18.3903 6.21047 18.4475 7.41187C18.5173 8.64563 18.5173 12.3544 18.4475 13.5938Z" fill="#2792A0"/>
</svg>
