<svg width="123" height="45" viewBox="0 0 123 45" fill="none" xmlns="http://www.w3.org/2000/svg">
<rect width="45" height="45" rx="22.5" fill="url(#paint0_linear)"/>
<path fill-rule="evenodd" clip-rule="evenodd" d="M22.3427 29.5708C21.9725 29.535 21.6254 29.3745 21.3584 29.1156C20.8418 28.6152 20.0447 27.8163 19.1839 26.8584L19.176 26.8482C17.8609 25.388 16.8088 24.0184 16.0487 22.7768C15.1037 21.2344 14.625 19.8953 14.625 18.7974C14.6284 17.2988 15.0576 15.832 15.8626 14.5679C16.6677 13.3039 17.8153 12.2946 19.1719 11.6578C20.4023 11.0852 21.7596 10.8399 23.1126 10.9456C24.4656 11.0512 25.7684 11.5042 26.8951 12.2608C26.8972 12.2622 26.899 12.2638 26.9009 12.2654C26.9027 12.267 26.9046 12.2686 26.9066 12.27C27.9751 12.9909 28.8501 13.9632 29.4549 15.1014C30.0597 16.2396 30.3756 17.5089 30.375 18.7978C30.375 22.2061 25.6646 27.149 23.6393 29.1161C23.3346 29.4126 22.9263 29.5784 22.5012 29.5782C22.4508 29.5782 22.4 29.5758 22.3487 29.5708H22.3427ZM22.7539 28.6401C22.8521 28.6043 22.9415 28.5481 23.0164 28.4752C23.9313 27.5861 26.0961 25.395 27.6704 23.104C27.6635 23.1095 27.6566 23.115 27.6501 23.1211C27.5217 23.232 27.3921 23.341 27.2615 23.4482L27.2352 23.4699C27.0993 23.5808 26.9635 23.6903 26.8248 23.7985L26.7953 23.8216C26.6631 23.9251 26.5311 24.0273 26.3993 24.1284L26.3591 24.1589C26.2235 24.2627 26.0889 24.3653 25.9552 24.4666C24.2159 25.7854 22.7146 26.9263 22.7447 28.4655C22.7461 28.5191 22.7493 28.5718 22.7539 28.6244V28.6401ZM29.4713 18.8181C29.4748 18.799 29.4783 18.78 29.4813 18.7609C29.4697 17.1165 28.8775 15.5292 27.8091 14.2792C27.8118 14.2852 27.8118 14.2912 27.8118 14.2972C27.822 14.3577 27.8317 14.4173 27.8396 14.4765V14.4825C27.8474 14.5402 27.8539 14.5971 27.8594 14.6534C27.86 14.659 27.8607 14.6645 27.8614 14.67C27.863 14.6823 27.8645 14.6944 27.8645 14.7066C27.8682 14.7477 27.8715 14.7888 27.8742 14.829C27.8746 14.8341 27.8751 14.8392 27.8755 14.8443C27.8767 14.8574 27.8779 14.8706 27.8779 14.8836C27.8786 14.8953 27.8793 14.907 27.8801 14.9186C27.882 14.9488 27.8839 14.9787 27.8839 15.0083V15.0485C27.8867 15.1026 27.8867 15.1557 27.8867 15.207V15.4002C27.8863 15.4147 27.8856 15.429 27.885 15.4432C27.884 15.4639 27.883 15.4843 27.883 15.5046V15.5443C27.8823 15.5587 27.8812 15.573 27.8801 15.5871C27.8783 15.6097 27.8765 15.632 27.8765 15.6538V15.6742C27.8733 15.7171 27.8701 15.7578 27.8664 15.7971V15.8156C27.8633 15.8482 27.8601 15.879 27.8567 15.908C27.8563 15.912 27.8557 15.9158 27.8552 15.9196C27.8543 15.9254 27.8534 15.9312 27.8534 15.9371C27.8507 15.963 27.8474 15.9861 27.8442 16.0092C27.8438 16.0124 27.8433 16.0156 27.8427 16.0187C27.8418 16.0238 27.841 16.0288 27.841 16.0337C27.8373 16.0609 27.8336 16.0868 27.8303 16.1099V16.1145C27.8268 16.1352 27.8235 16.1565 27.8206 16.1756L27.8192 16.1848V16.1972C27.8171 16.2094 27.8149 16.2205 27.813 16.2304C27.8124 16.2333 27.8119 16.2361 27.8114 16.2388C27.8111 16.2413 27.8108 16.2437 27.8103 16.2462C27.81 16.2482 27.8095 16.2502 27.8091 16.2522C27.8084 16.2563 27.8074 16.2602 27.8066 16.2638C27.8052 16.2694 27.804 16.2745 27.804 16.279C27.8038 16.2817 27.8038 16.2843 27.804 16.2869C27.8033 16.2909 27.8025 16.2944 27.8017 16.2974C27.8009 16.3006 27.8003 16.3032 27.8003 16.3049C27.3632 18.2452 25.879 19.2766 24.3398 20.1975L24.3088 20.216C24.1597 20.305 24.0102 20.3943 23.8615 20.4807C22.3011 21.3989 20.8275 22.2662 20.1903 23.9325C20.1547 24.0253 20.1228 24.1196 20.0937 24.2153C20.0883 24.2329 20.0836 24.251 20.0788 24.2691C20.0751 24.2832 20.0714 24.2974 20.0674 24.3114C20.0654 24.3185 20.0634 24.3256 20.0614 24.3327C20.0453 24.3903 20.0292 24.4481 20.0156 24.5073C20.01 24.5308 20.0054 24.5551 20.0008 24.5794C19.9979 24.5951 19.9949 24.6109 19.9916 24.6265C19.989 24.6397 19.9863 24.6529 19.9836 24.6661C19.9741 24.7129 19.9645 24.7597 19.9569 24.8076C19.952 24.8366 19.9483 24.866 19.9446 24.8953C19.9428 24.91 19.9409 24.9247 19.9389 24.9393C19.9377 24.9487 19.9364 24.9581 19.9351 24.9675C19.9285 25.0168 19.9218 25.0662 19.9167 25.1163C19.9134 25.1493 19.9113 25.1823 19.9092 25.2153C19.9083 25.2285 19.9075 25.2417 19.9066 25.2549C19.9055 25.2703 19.9042 25.2856 19.903 25.3009C19.8995 25.3443 19.8959 25.3879 19.8959 25.4319V25.7572C19.8965 25.7781 19.8978 25.7991 19.899 25.8201C19.9007 25.8496 19.9024 25.8792 19.9024 25.9088C19.9052 25.9689 19.9084 26.0294 19.913 26.0908C19.9172 26.1421 19.9227 26.1939 19.9283 26.2456C19.9311 26.2754 19.9346 26.3052 19.9382 26.335C19.9394 26.345 19.9405 26.3549 19.9417 26.3649C20.6819 27.1809 21.3663 27.8722 21.851 28.3463V28.3227C21.8516 28.3047 21.8526 28.2866 21.8537 28.2686C21.8544 28.2566 21.8551 28.2446 21.8556 28.2326C21.857 28.2025 21.8584 28.1725 21.8612 28.1429C21.8635 28.1178 21.8662 28.0934 21.869 28.0685L21.8712 28.0478C21.8742 28.0206 21.8772 27.9927 21.881 27.9664C21.8851 27.9383 21.8897 27.9119 21.8946 27.883L21.8949 27.8814C21.8959 27.8758 21.8968 27.8702 21.8978 27.8645C21.9019 27.8402 21.9061 27.8156 21.9106 27.7931C21.9149 27.7718 21.9194 27.7516 21.9242 27.7302C21.9257 27.7238 21.9271 27.7172 21.9286 27.7104C21.9351 27.6813 21.942 27.6508 21.949 27.6236C21.9535 27.6056 21.9583 27.5887 21.9633 27.571C21.9658 27.5618 21.9685 27.5525 21.9712 27.5427C21.979 27.514 21.9878 27.4836 21.9961 27.4572C22.0009 27.442 22.0059 27.4273 22.011 27.4123C22.0147 27.4013 22.0185 27.3901 22.0224 27.3782C22.0317 27.35 22.0423 27.3195 22.052 27.2936C22.0617 27.2678 22.0705 27.2451 22.0816 27.2169C22.0927 27.1887 22.1056 27.1578 22.1162 27.1328C22.1248 27.1128 22.133 27.0945 22.1424 27.0737C22.1447 27.0686 22.1471 27.0634 22.1495 27.058C22.162 27.0303 22.1759 26.9998 22.1879 26.9753C22.1988 26.953 22.2089 26.933 22.2211 26.9091L22.2248 26.9018C22.2387 26.8745 22.253 26.8473 22.2673 26.82L22.3075 26.7479C22.3213 26.7229 22.3372 26.6959 22.3508 26.6725L22.3538 26.6675C22.3644 26.6494 22.374 26.634 22.385 26.6163C22.3889 26.6102 22.3929 26.6037 22.3972 26.5968C22.4138 26.57 22.4328 26.5395 22.448 26.5169C22.4633 26.4942 22.4785 26.4711 22.4942 26.448L22.5492 26.369C22.5594 26.3553 22.5688 26.3421 22.5792 26.3274C22.585 26.3194 22.591 26.3109 22.5977 26.3016C22.6114 26.2826 22.6272 26.2616 22.6412 26.2431C22.6466 26.236 22.6518 26.2292 22.6564 26.223C22.6731 26.2008 22.6869 26.1828 22.7072 26.1569C22.7236 26.1361 22.7427 26.1125 22.7587 26.0928C22.7625 26.088 22.7662 26.0835 22.7696 26.0793C22.7805 26.0659 22.7903 26.054 22.8012 26.0408C22.8079 26.0327 22.8151 26.024 22.8232 26.0141C22.8361 25.9985 22.8493 25.9829 22.8626 25.9674C22.8712 25.9573 22.8798 25.9472 22.8884 25.937L22.9443 25.8732C22.9669 25.8473 22.99 25.8219 23.0131 25.7965L23.0709 25.7337C23.0851 25.7184 23.0996 25.7032 23.1142 25.6881C23.1238 25.678 23.1334 25.668 23.143 25.6579L23.2026 25.596L23.2779 25.5216L23.3394 25.4606L23.417 25.3857L23.4808 25.3252C23.506 25.3013 23.5316 25.2778 23.5577 25.254L23.5612 25.2508L23.6259 25.1912C23.6421 25.1763 23.6586 25.1616 23.6752 25.1469C23.6865 25.1369 23.6978 25.1269 23.709 25.1168L23.7751 25.0581L23.8606 24.9842L23.9276 24.9259L24.0154 24.852L24.0838 24.7947C24.1133 24.7698 24.1433 24.7453 24.1734 24.7208L24.1734 24.7208L24.2427 24.6639L24.3352 24.5895L24.4045 24.5332L24.5015 24.4579L24.5704 24.4038L24.6706 24.3252L24.7335 24.2739L24.8374 24.1935L24.9017 24.1441L25.0107 24.0614L25.0749 24.0119L25.1988 23.9195L25.245 23.8849L25.416 23.7546C25.7034 23.5369 25.9917 23.3179 26.2754 23.0952L26.3161 23.0628C26.3591 23.0291 26.4025 22.9949 26.445 22.9607L26.4912 22.9224L26.6114 22.8262L26.6682 22.7777C26.6766 22.7708 26.6851 22.7639 26.6935 22.757C26.7208 22.7348 26.7481 22.7125 26.7749 22.6899L26.9404 22.5527L27.0161 22.4875L27.1016 22.4145L27.1857 22.3406L27.261 22.2741L27.3484 22.1946C27.3638 22.1804 27.3767 22.1688 27.3926 22.1545C27.3999 22.1478 27.408 22.1406 27.4172 22.1322C27.4366 22.1146 27.4556 22.0967 27.4746 22.0787C27.4841 22.0697 27.4936 22.0607 27.5032 22.0518L27.5706 21.9885C27.5993 21.9612 27.627 21.934 27.6552 21.9062C27.6769 21.8855 27.6991 21.8642 27.7204 21.8429L27.8077 21.7575L27.8687 21.6951C27.8914 21.672 27.9135 21.6483 27.9355 21.6247C27.9408 21.619 27.9461 21.6134 27.9514 21.6077L28.0087 21.5449C28.0269 21.5252 28.0447 21.5054 28.0625 21.4857C28.0713 21.4758 28.0802 21.466 28.0891 21.4562C28.108 21.4349 28.1274 21.4141 28.1464 21.3924C28.1727 21.361 28.1986 21.3305 28.2245 21.3L28.2795 21.2362C28.3049 21.2057 28.3298 21.1748 28.3548 21.1438L28.4075 21.0791L28.4791 20.9867L28.5299 20.9202C28.5373 20.9101 28.545 20.8997 28.5527 20.8892C28.5677 20.8691 28.5829 20.8484 28.5978 20.8278C28.6041 20.8189 28.6106 20.81 28.6171 20.8011C28.6272 20.7871 28.6374 20.773 28.6473 20.7589C28.669 20.7275 28.6903 20.6956 28.7115 20.6637C28.72 20.6496 28.729 20.6363 28.738 20.6229C28.7446 20.6131 28.7513 20.6032 28.7577 20.593C28.7724 20.57 28.7869 20.5467 28.8013 20.5235C28.8068 20.5146 28.8123 20.5057 28.8178 20.4969C28.824 20.487 28.8301 20.4778 28.8359 20.4689C28.8457 20.4539 28.855 20.4397 28.864 20.4244C28.8813 20.396 28.8975 20.3672 28.9139 20.3381L28.9199 20.3273C28.9247 20.319 28.9291 20.3114 28.9335 20.3039C28.9424 20.2888 28.9512 20.2737 28.9629 20.2525C28.9756 20.2294 28.9896 20.2026 29.0015 20.1796C29.0061 20.1709 29.0104 20.1627 29.0142 20.1554C29.0182 20.1478 29.022 20.1407 29.0257 20.1338C29.0349 20.1167 29.0437 20.1003 29.0548 20.0773C29.0634 20.0597 29.0725 20.0402 29.0811 20.0218C29.0883 20.0063 29.0951 19.9916 29.101 19.9794C29.1045 19.9722 29.1078 19.9655 29.1111 19.9588C29.12 19.9406 29.1286 19.923 29.1394 19.899C29.1542 19.8662 29.1704 19.8273 29.1819 19.7996C29.1935 19.7719 29.2032 19.7493 29.2166 19.7164C29.225 19.6959 29.2334 19.6734 29.2412 19.6524C29.2458 19.6398 29.2503 19.6278 29.2545 19.6171L29.2586 19.6063C29.2681 19.5821 29.2767 19.5597 29.2868 19.5307C29.2945 19.5085 29.3022 19.4846 29.3093 19.4623C29.3129 19.4511 29.3164 19.4403 29.3196 19.4304C29.3227 19.421 29.3258 19.4119 29.3289 19.4028C29.3355 19.3835 29.3421 19.3642 29.3487 19.3412C29.3584 19.3075 29.3686 19.271 29.3769 19.24C29.3801 19.228 29.3835 19.2165 29.3868 19.2049C29.392 19.1866 29.3972 19.1682 29.4023 19.1476C29.4077 19.1256 29.413 19.1025 29.418 19.0802C29.4207 19.0683 29.4233 19.0566 29.4259 19.0455L29.4273 19.0394C29.4342 19.0098 29.4407 18.9819 29.4471 18.9499C29.453 18.9208 29.4589 18.8874 29.4637 18.8605C29.4645 18.8557 29.4653 18.8511 29.4661 18.8468C29.4678 18.8373 29.4695 18.8277 29.4713 18.8181ZM26.3341 12.9595C25.1956 12.2101 23.8618 11.8121 22.4988 11.8149C22.3265 11.8149 22.1555 11.8214 21.9836 11.8297C22.0086 11.8477 22.0335 11.8662 22.0576 11.8856C22.7987 12.4724 23.0062 13.4927 22.9526 14.2514C22.8556 15.6109 21.9527 16.3932 20.8793 17.1131C20.6806 17.2462 20.4763 17.3774 20.2698 17.5096L20.2634 17.5137C18.9928 18.3298 17.6771 19.1749 17.1489 20.8499C17.1433 20.8675 17.1373 20.8869 17.1313 20.9072C17.1307 20.9094 17.1298 20.9117 17.1289 20.9139C17.1271 20.9184 17.1253 20.923 17.1253 20.9276L17.1124 20.971C17.1115 20.9743 17.1108 20.9766 17.1101 20.979C17.1089 20.9832 17.1076 20.9878 17.105 20.9983C17.102 21.0101 17.099 21.0208 17.0961 21.0315C17.0949 21.0358 17.0937 21.0401 17.0925 21.0445L17.0842 21.0754C17.0822 21.0834 17.0797 21.0929 17.0774 21.1017C17.0753 21.1094 17.0735 21.1165 17.0722 21.1216C17.0715 21.1244 17.0708 21.127 17.0702 21.1296C17.0683 21.1372 17.0665 21.1445 17.0634 21.1563C17.0611 21.165 17.0586 21.1754 17.0563 21.185C17.0545 21.1926 17.0528 21.1997 17.0514 21.2053C17.0497 21.2116 17.0484 21.2173 17.047 21.2234C17.0457 21.2294 17.0442 21.2359 17.0421 21.2441C17.038 21.2607 17.0329 21.2811 17.0301 21.2949C17.0288 21.3017 17.0274 21.3076 17.0259 21.314C17.0244 21.3206 17.0228 21.3278 17.0209 21.337C17.0194 21.3441 17.0177 21.3515 17.0161 21.3589C17.0135 21.3702 17.011 21.3813 17.0093 21.391C17.0066 21.4072 17.0033 21.4224 17.0001 21.4372L16.9904 21.4904C16.9887 21.499 16.9871 21.5072 16.9853 21.5169C16.9842 21.5228 16.983 21.5292 16.9816 21.5366C16.9798 21.5462 16.978 21.5568 16.9762 21.5671C16.9744 21.5776 16.9726 21.5878 16.971 21.5962C16.9677 21.6128 16.9654 21.6262 16.9622 21.6466C16.9606 21.6566 16.9588 21.6677 16.957 21.6785C16.9552 21.6894 16.9534 21.7001 16.952 21.7089C16.9512 21.7144 16.9501 21.7199 16.949 21.7254C16.9466 21.7375 16.9442 21.7495 16.9442 21.7616L16.9345 21.8272C16.9337 21.8335 16.9325 21.8398 16.9314 21.8461C16.9293 21.858 16.9271 21.8701 16.9271 21.8822L16.9188 21.9515C16.9167 21.9681 16.9154 21.9799 16.9131 21.9999L16.9123 22.007L16.9123 22.007C16.9095 22.0315 16.9067 22.056 16.9044 22.0809L16.8989 22.1373C16.8982 22.1451 16.8973 22.1529 16.8965 22.1608C16.8945 22.1791 16.8924 22.1975 16.8924 22.2158C16.892 22.2204 16.8915 22.225 16.8909 22.2295C16.8894 22.2435 16.8878 22.2575 16.8878 22.2718C16.8872 22.2809 16.8864 22.2901 16.8856 22.2994C16.884 22.3188 16.8823 22.3385 16.8823 22.3582C16.8795 22.3757 16.8795 22.3928 16.8795 22.4108C16.8793 22.4136 16.8793 22.4164 16.8795 22.4192C17.4363 23.3105 18.1484 24.2753 19.0074 25.2919C19.0097 25.2817 19.0097 25.272 19.0097 25.2619C19.012 25.2134 19.0157 25.1671 19.0194 25.1209C19.0199 25.1147 19.0207 25.1082 19.0214 25.1015C19.0231 25.0859 19.0249 25.0695 19.0249 25.0539C19.0305 24.9916 19.0374 24.9301 19.0448 24.8691C19.0471 24.8622 19.0471 24.8552 19.0471 24.8488C19.0559 24.7808 19.0661 24.7134 19.0771 24.6464C19.0788 24.6347 19.081 24.6231 19.0831 24.6115C19.0846 24.6037 19.086 24.5959 19.0873 24.5882C19.0956 24.542 19.1044 24.4957 19.1136 24.4495C19.1187 24.4232 19.1238 24.401 19.1294 24.377C19.1374 24.3386 19.1462 24.3009 19.155 24.263L19.1575 24.2522C19.1636 24.2273 19.17 24.2019 19.1765 24.1769L19.1765 24.1768C19.1871 24.1362 19.1978 24.0956 19.2093 24.0554C19.2162 24.0295 19.2227 24.0073 19.2301 23.9833C19.243 23.9399 19.2564 23.8974 19.2703 23.8548C19.2738 23.8447 19.277 23.8344 19.2802 23.8241C19.2835 23.8138 19.2867 23.8035 19.2902 23.7934C19.311 23.7319 19.3336 23.67 19.3572 23.6085C20.1057 21.6499 21.7852 20.6615 23.4088 19.706L23.4091 19.7058C24.0117 19.3514 24.6013 19.0039 25.1244 18.6158L25.1415 18.6028C25.1501 18.5963 25.1588 18.5898 25.1675 18.5833C25.1964 18.5616 25.2253 18.5399 25.2538 18.5178L25.2967 18.4836L25.3799 18.418C25.4063 18.3967 25.4321 18.375 25.458 18.3533C25.4742 18.3408 25.4894 18.3288 25.5042 18.3159C25.5416 18.2845 25.5786 18.2521 25.6147 18.2198L25.6239 18.2119C25.6572 18.1823 25.6895 18.1528 25.7214 18.1227L25.7403 18.1056C26.1226 17.7558 26.436 17.3375 26.6645 16.8723C26.6848 16.8308 26.7038 16.7878 26.7223 16.7448C26.7238 16.7412 26.7255 16.7376 26.7271 16.7341C26.728 16.7322 26.7289 16.7304 26.7297 16.7286C26.7314 16.7244 26.7331 16.7202 26.7349 16.7161C26.7511 16.6771 26.7668 16.6391 26.7819 16.5974L26.7888 16.5799C26.8031 16.5415 26.8161 16.5022 26.829 16.4629L26.8419 16.4269C26.8508 16.3989 26.8588 16.3707 26.8669 16.3424C26.8693 16.3337 26.8718 16.3251 26.8743 16.3165C26.8754 16.3131 26.8765 16.3097 26.8776 16.3063C26.8814 16.2948 26.8854 16.2827 26.8886 16.2703C26.8965 16.2416 26.9036 16.212 26.9107 16.1827C26.912 16.1775 26.9132 16.1724 26.9145 16.1672C26.9169 16.1565 26.9196 16.146 26.9223 16.1356C26.9247 16.1263 26.9271 16.117 26.9293 16.1076C26.9826 15.8196 27.0086 15.5272 27.0069 15.2343V15.1169C27.0046 15.0947 27.0046 15.0716 27.0046 15.0485C27.0046 15.0437 27.0047 15.0393 27.0048 15.0349C27.005 15.0258 27.0052 15.0166 27.0046 15.0023C27.004 14.9898 27.0032 14.9759 27.0024 14.9628C27.0018 14.9537 27.0013 14.945 27.0009 14.9376C27 14.9196 26.999 14.903 26.9977 14.8826C26.9963 14.8623 26.9944 14.841 26.9926 14.8207C26.9917 14.8109 26.9909 14.8012 26.9901 14.7914C26.9893 14.7809 26.9885 14.7705 26.9875 14.7602C26.9856 14.7403 26.9833 14.72 26.981 14.7001C26.98 14.691 26.9788 14.6803 26.9776 14.6697C26.9763 14.6571 26.9749 14.6445 26.9736 14.634C26.9722 14.6219 26.9706 14.6111 26.9688 14.5991C26.9677 14.5918 26.9665 14.5841 26.9653 14.5753C26.9642 14.5676 26.9631 14.5594 26.9619 14.5512C26.9597 14.5351 26.9575 14.5189 26.9556 14.506C26.9541 14.4951 26.9525 14.4863 26.9507 14.476C26.9493 14.468 26.9477 14.4592 26.9459 14.4478C26.9417 14.4219 26.9371 14.3947 26.9334 14.3757C26.9297 14.3568 26.927 14.3425 26.9219 14.318C26.9199 14.3084 26.9178 14.2979 26.9156 14.2876C26.9124 14.2716 26.9092 14.2558 26.9066 14.244C26.9025 14.2246 26.8992 14.2103 26.8932 14.1858C26.8909 14.1763 26.8884 14.1658 26.8859 14.1554C26.8821 14.1392 26.8783 14.1233 26.8752 14.1114C26.8729 14.1026 26.8707 14.0948 26.8683 14.0866C26.8655 14.0768 26.8626 14.0663 26.859 14.0527C26.8526 14.0278 26.8442 13.9977 26.8382 13.9779C26.8337 13.963 26.83 13.9513 26.8252 13.9358C26.8235 13.9306 26.8217 13.925 26.8198 13.9187C26.8119 13.8938 26.804 13.8688 26.7957 13.8439L26.7749 13.7847C26.7691 13.7691 26.7626 13.7516 26.7567 13.7358C26.7532 13.7265 26.75 13.7177 26.7472 13.7103C26.7411 13.6939 26.7359 13.6813 26.7286 13.6633C26.7271 13.6595 26.7254 13.6555 26.7236 13.6512C26.7135 13.6262 26.701 13.5962 26.6927 13.5768C26.6891 13.5685 26.6858 13.5614 26.6822 13.5539C26.6774 13.5438 26.6722 13.533 26.6659 13.5176C26.6565 13.4949 26.647 13.4758 26.637 13.4555C26.6353 13.4519 26.6335 13.4483 26.6317 13.4446L26.6017 13.386C26.5899 13.3615 26.576 13.3363 26.5656 13.3172L26.5638 13.3139C26.5577 13.3027 26.5522 13.2933 26.546 13.2826C26.5414 13.2747 26.5364 13.2661 26.5305 13.2556C26.5209 13.2387 26.51 13.2206 26.5003 13.2047C26.496 13.1976 26.492 13.1909 26.4884 13.1849C26.4769 13.1655 26.4677 13.1503 26.4519 13.1272C26.4441 13.1156 26.4365 13.1041 26.4288 13.0925C26.4212 13.081 26.4136 13.0694 26.4057 13.0579L26.3651 13.001L26.3341 12.9595ZM19.5836 12.4627L19.5184 12.4817C18.323 13.0497 17.3128 13.9446 16.6047 15.0627C15.8965 16.1809 15.5194 17.4766 15.5168 18.8001C15.5168 19.454 15.7312 20.2321 16.1563 21.1226V21.1193C16.1674 21.0699 16.1785 21.0237 16.1896 20.9775C16.1924 20.9659 16.1952 20.9544 16.1984 20.9433C16.2081 20.904 16.2178 20.8661 16.2275 20.8301C16.2279 20.8282 16.2285 20.8264 16.2292 20.8245C16.2302 20.8215 16.2312 20.8185 16.2312 20.8157C16.24 20.7841 16.2484 20.7543 16.2566 20.7256C16.2583 20.7196 16.26 20.7136 16.2617 20.7076C16.2633 20.7019 16.265 20.6962 16.2667 20.6907C16.268 20.6865 16.2693 20.6822 16.2705 20.678C16.2802 20.6438 16.2894 20.6129 16.2982 20.5856C16.9237 18.5996 18.4452 17.6237 19.7877 16.7626L19.7899 16.7612C21.0134 15.9764 21.9795 15.3568 22.0626 14.1927C22.0798 13.9363 22.0566 13.6787 21.9938 13.4294V13.4262C21.9358 13.1779 21.8231 12.9456 21.6639 12.7464L21.656 12.7363C21.6375 12.715 21.6177 12.6947 21.5978 12.6748C21.5959 12.6729 21.5941 12.6709 21.5923 12.6689C21.5894 12.6657 21.5865 12.6624 21.583 12.6596C21.558 12.635 21.5316 12.6119 21.504 12.5903C21.4781 12.5695 21.4504 12.5496 21.4222 12.5311C21.4161 12.5273 21.4119 12.5249 21.4063 12.5218C21.4017 12.5192 21.3962 12.516 21.388 12.5112C21.3847 12.5093 21.3812 12.5072 21.3776 12.5051C21.3618 12.4957 21.3443 12.4854 21.333 12.4794C21.3241 12.4746 21.3162 12.471 21.3071 12.4669C21.3019 12.4645 21.2964 12.462 21.29 12.459C21.2842 12.4562 21.2781 12.4533 21.2721 12.4503C21.26 12.4443 21.2478 12.4384 21.2374 12.4341C21.226 12.4294 21.2145 12.4252 21.2023 12.4208C21.1976 12.4191 21.1928 12.4174 21.1879 12.4156C21.1821 12.4134 21.1762 12.4112 21.1704 12.409C21.1587 12.4046 21.147 12.4002 21.1352 12.3962C21.1223 12.3918 21.1089 12.3881 21.0955 12.3844C21.0907 12.3831 21.0859 12.3818 21.0812 12.3805C21.0752 12.3788 21.0693 12.3771 21.0634 12.3754C21.0516 12.372 21.0398 12.3686 21.0271 12.3652C21.0143 12.3618 21.0012 12.3592 20.9881 12.3566C20.9819 12.3553 20.9756 12.3541 20.9694 12.3527L20.913 12.3407L20.8511 12.3319C20.8454 12.3311 20.8397 12.3303 20.834 12.3294C20.8206 12.3273 20.8069 12.3253 20.7933 12.3236C20.7739 12.3213 20.7476 12.3195 20.7277 12.3181C20.7206 12.3176 20.714 12.3169 20.7074 12.3161C20.6957 12.3148 20.6839 12.3135 20.6685 12.3135H20.4033C20.3799 12.3148 20.3517 12.3173 20.3311 12.3191L20.3271 12.3195C20.3186 12.3202 20.3102 12.3208 20.3017 12.3214C20.2893 12.3223 20.2769 12.3232 20.2642 12.3246L20.1843 12.3343L20.1205 12.3426C20.1007 12.3453 20.0807 12.3488 20.0606 12.3523C20.0534 12.3535 20.0463 12.3548 20.0392 12.356L19.9727 12.3675C19.9454 12.3726 19.9126 12.3795 19.8899 12.3846C19.8801 12.3868 19.8702 12.3889 19.8602 12.3909C19.8474 12.3936 19.8344 12.3963 19.8211 12.3994L19.7384 12.4202L19.6663 12.4387C19.6386 12.4461 19.6108 12.4544 19.5836 12.4627Z" fill="white"/>
<path fill-rule="evenodd" clip-rule="evenodd" d="M21.1084 30.6673H23.8892C24.1012 30.6675 24.3044 30.7518 24.4542 30.9017C24.6041 31.0516 24.6884 31.2547 24.6886 31.4667V31.8886C24.6886 32.1761 24.632 32.4609 24.5219 32.7266C24.4119 32.9922 24.2506 33.2336 24.0473 33.437C23.8439 33.6403 23.6025 33.8016 23.3368 33.9117C23.0712 34.0217 22.7864 34.0784 22.4988 34.0784C22.2113 34.0784 21.9265 34.0217 21.6608 33.9117C21.3952 33.8016 21.1538 33.6403 20.9504 33.437C20.7471 33.2336 20.5858 32.9922 20.4757 32.7266C20.3657 32.4609 20.309 32.1761 20.309 31.8886V31.4667C20.3093 31.2547 20.3936 31.0516 20.5434 30.9017C20.6933 30.7518 20.8965 30.6675 21.1084 30.6673ZM23.4172 32.8051C23.6603 32.562 23.7968 32.2323 23.7968 31.8886V31.5609H21.2045V31.8886C21.2045 32.2323 21.3411 32.562 21.5842 32.8051C21.8273 33.0481 22.1569 33.1847 22.5007 33.1847C22.8444 33.1847 23.1741 33.0481 23.4172 32.8051Z" fill="white"/>
<path d="M64.326 18.83C65.154 18.83 65.892 19.04 66.54 19.46C67.2 19.868 67.716 20.462 68.088 21.242C68.472 22.01 68.664 22.922 68.664 23.978C68.664 25.022 68.472 25.934 68.088 26.714C67.716 27.494 67.2 28.094 66.54 28.514C65.892 28.922 65.154 29.126 64.326 29.126C63.558 29.126 62.898 28.952 62.346 28.604C61.794 28.256 61.392 27.782 61.14 27.182V33.788H58.062L58.062 18.956H61.14V20.774C61.392 20.174 61.794 19.7 62.346 19.352C62.898 19.004 63.558 18.83 64.326 18.83ZM63.336 21.53C62.688 21.53 62.154 21.752 61.734 22.196C61.326 22.628 61.122 23.222 61.122 23.978C61.122 24.722 61.326 25.316 61.734 25.76C62.154 26.204 62.688 26.426 63.336 26.426C63.996 26.426 64.524 26.21 64.92 25.778C65.328 25.346 65.532 24.746 65.532 23.978C65.532 23.21 65.328 22.61 64.92 22.178C64.524 21.746 63.996 21.53 63.336 21.53ZM73.3392 15.68V29H70.2612V15.68L73.3392 15.68ZM85.0043 23.708C85.0043 23.96 84.9743 24.236 84.9143 24.536L77.9483 24.536C77.9843 25.292 78.1763 25.838 78.5243 26.174C78.8723 26.498 79.3163 26.66 79.8563 26.66C80.3123 26.66 80.6903 26.546 80.9903 26.318C81.2903 26.09 81.4883 25.796 81.5843 25.436H84.8423C84.7103 26.144 84.4223 26.78 83.9783 27.344C83.5343 27.896 82.9703 28.334 82.2863 28.658C81.6023 28.97 80.8403 29.126 80.0003 29.126C79.0163 29.126 78.1403 28.922 77.3723 28.514C76.6163 28.094 76.0223 27.494 75.5903 26.714C75.1583 25.934 74.9423 25.022 74.9423 23.978C74.9423 22.922 75.1523 22.01 75.5723 21.242C76.0043 20.462 76.6043 19.868 77.3723 19.46C78.1403 19.04 79.0163 18.83 80.0003 18.83C80.9963 18.83 81.8723 19.034 82.6283 19.442C83.3843 19.85 83.9663 20.426 84.3743 21.17C84.7943 21.902 85.0043 22.748 85.0043 23.708ZM81.8903 23.24C81.9023 22.58 81.7223 22.088 81.3503 21.764C80.9903 21.428 80.5403 21.26 80.0003 21.26C79.4363 21.26 78.9683 21.428 78.5963 21.764C78.2243 22.1 78.0143 22.592 77.9663 23.24H81.8903ZM92.9809 18.848C94.1329 18.848 95.0449 19.232 95.7169 20C96.4009 20.768 96.7429 21.824 96.7429 23.168V29H93.6649V23.528C93.6649 22.856 93.4849 22.334 93.1249 21.962C92.7769 21.578 92.3089 21.386 91.7209 21.386C91.0969 21.386 90.5989 21.584 90.2269 21.98C89.8669 22.376 89.6869 22.94 89.6869 23.672V29H86.6089V18.956H89.6869V20.792C89.9749 20.192 90.4009 19.718 90.9649 19.37C91.5409 19.022 92.2129 18.848 92.9809 18.848ZM104.461 26.354V29H103.075C101.899 29 100.981 28.712 100.321 28.136C99.6729 27.548 99.3489 26.582 99.3489 25.238V21.548H97.9989V18.956H99.3489V16.49H102.427V18.956H104.443V21.548H102.427V25.292C102.427 25.688 102.505 25.964 102.661 26.12C102.829 26.276 103.105 26.354 103.489 26.354H104.461ZM105.903 16.13C105.903 15.662 106.071 15.278 106.407 14.978C106.743 14.666 107.187 14.51 107.739 14.51C108.291 14.51 108.735 14.666 109.071 14.978C109.407 15.278 109.575 15.662 109.575 16.13C109.575 16.586 109.407 16.97 109.071 17.282C108.735 17.582 108.291 17.732 107.739 17.732C107.187 17.732 106.743 17.582 106.407 17.282C106.071 16.97 105.903 16.586 105.903 16.13ZM109.269 18.956V29H106.191V18.956H109.269ZM116.326 17.588C115.822 17.588 115.456 17.696 115.228 17.912C115 18.128 114.874 18.476 114.85 18.956H116.668V21.548H114.85V29L111.772 29V21.548H110.566V18.956H111.772V18.848C111.772 17.6 112.132 16.64 112.852 15.968C113.584 15.284 114.64 14.942 116.02 14.942C116.308 14.942 116.524 14.948 116.668 14.96V17.606L116.326 17.588ZM117.733 16.13C117.733 15.662 117.901 15.278 118.237 14.978C118.573 14.666 119.017 14.51 119.569 14.51C120.121 14.51 120.565 14.666 120.901 14.978C121.237 15.278 121.405 15.662 121.405 16.13C121.405 16.586 121.237 16.97 120.901 17.282C120.565 17.582 120.121 17.732 119.569 17.732C119.017 17.732 118.573 17.582 118.237 17.282C117.901 16.97 117.733 16.586 117.733 16.13ZM121.099 18.956V29H118.021V18.956H121.099Z" fill="#161918"/>
<defs>
<linearGradient id="paint0_linear" x1="3.11079" y1="17.7167" x2="33.2961" y2="33.4776" gradientUnits="userSpaceOnUse">
<stop stop-color="#93D2C0"/>
<stop offset="1" stop-color="#007A91"/>
</linearGradient>
</defs>
</svg>
