<svg width="18" height="18" viewBox="0 0 18 18" fill="none" xmlns="http://www.w3.org/2000/svg">
<path fill-rule="evenodd" clip-rule="evenodd" d="M4.40609 1.61233C4.43692 1.61234 4.46821 1.61235 4.49998 1.61235H6.00881C6.03225 1.61235 6.05538 1.61235 6.0782 1.61234C6.56157 1.61216 6.90844 1.61204 7.24207 1.69214C7.5367 1.76287 7.81836 1.87954 8.07671 2.03786C8.36926 2.21713 8.61444 2.46249 8.95612 2.80441C8.97225 2.82056 8.9886 2.83691 9.00517 2.85349L9.14634 2.99466C9.55694 3.40526 9.69166 3.53419 9.83943 3.62474C9.9837 3.71315 10.141 3.7783 10.3055 3.8178C10.474 3.85826 10.6605 3.86235 11.2411 3.86235H12.9L12.9269 3.86235C13.5341 3.86235 14.0284 3.86234 14.4297 3.89513C14.8443 3.929 15.2154 4.00103 15.5609 4.17707C16.1042 4.45391 16.5459 4.89564 16.8228 5.43896C16.9988 5.78446 17.0708 6.15553 17.1047 6.57015C17.1375 6.97142 17.1375 7.46576 17.1375 8.073V8.09985V11.3999V11.4267C17.1375 12.0339 17.1375 12.5283 17.1047 12.9296C17.0708 13.3442 16.9988 13.7153 16.8228 14.0608C16.5459 14.6041 16.1042 15.0458 15.5609 15.3226C15.2154 15.4987 14.8443 15.5707 14.4297 15.6046C14.0284 15.6374 13.5341 15.6374 12.9268 15.6374H12.9H5.09998H5.07312C4.46588 15.6374 3.97154 15.6374 3.57027 15.6046C3.15565 15.5707 2.78458 15.4987 2.43908 15.3226C1.89576 15.0458 1.45403 14.6041 1.1772 14.0608C1.00115 13.7153 0.929124 13.3442 0.895248 12.9296C0.862464 12.5283 0.862469 12.034 0.862476 11.4268L0.862477 11.3999V5.24985C0.862477 5.21809 0.862464 5.1868 0.862451 5.15597C0.862203 4.5497 0.862027 4.12139 0.960866 3.75251C1.22786 2.75606 2.00618 1.97774 3.00264 1.71074C3.37151 1.61191 3.79982 1.61208 4.40609 1.61233ZM4.49998 2.88735C3.76145 2.88735 3.51725 2.89283 3.33263 2.9423C2.77617 3.0914 2.34152 3.52605 2.19242 4.08251C2.14295 4.26713 2.13748 4.51133 2.13748 5.24985V11.3999C2.13748 12.0404 2.13797 12.4825 2.16601 12.8257C2.19345 13.1615 2.24403 13.3461 2.31323 13.4819C2.46782 13.7853 2.71451 14.032 3.01792 14.1866C3.15372 14.2558 3.33833 14.3064 3.67409 14.3338C4.0173 14.3619 4.4594 14.3624 5.09998 14.3624H12.9C13.5406 14.3624 13.9826 14.3619 14.3259 14.3338C14.6616 14.3064 14.8462 14.2558 14.982 14.1866C15.2854 14.032 15.5321 13.7853 15.6867 13.4819C15.7559 13.3461 15.8065 13.1615 15.8339 12.8257C15.862 12.4825 15.8625 12.0404 15.8625 11.3999V8.09985C15.8625 7.45928 15.862 7.01718 15.8339 6.67397C15.8065 6.3382 15.7559 6.1536 15.6867 6.0178C15.5321 5.71438 15.2854 5.4677 14.982 5.31311C14.8462 5.24391 14.6616 5.19333 14.3259 5.16589C13.9826 5.13785 13.5406 5.13735 12.9 5.13735H11.2411C11.2177 5.13735 11.1946 5.13736 11.1718 5.13737C10.6884 5.13755 10.3415 5.13767 10.0079 5.05757C9.71325 4.98684 9.43159 4.87017 9.17324 4.71185C8.88069 4.53258 8.63551 4.28722 8.29384 3.9453C8.2777 3.92916 8.26136 3.9128 8.24478 3.89622L8.10361 3.75505C7.69301 3.34445 7.55829 3.21552 7.41052 3.12497C7.26625 3.03656 7.10896 2.97141 6.94443 2.93191C6.77591 2.89145 6.58948 2.88735 6.00881 2.88735H4.49998Z" fill="#707878"/>
<path d="M6 9.75C6.41421 9.75 6.75 9.41421 6.75 9C6.75 8.58579 6.41421 8.25 6 8.25C5.58579 8.25 5.25 8.58579 5.25 9C5.25 9.41421 5.58579 9.75 6 9.75Z" fill="#707878"/>
<path d="M9.75 9C9.75 9.41421 9.41421 9.75 9 9.75C8.58579 9.75 8.25 9.41421 8.25 9C8.25 8.58579 8.58579 8.25 9 8.25C9.41421 8.25 9.75 8.58579 9.75 9Z" fill="#707878"/>
<path d="M12 9.75C12.4142 9.75 12.75 9.41421 12.75 9C12.75 8.58579 12.4142 8.25 12 8.25C11.5858 8.25 11.25 8.58579 11.25 9C11.25 9.41421 11.5858 9.75 12 9.75Z" fill="#707878"/>
</svg>
