<svg width="18" height="18" viewBox="0 0 18 18" fill="none" xmlns="http://www.w3.org/2000/svg">
<path fill-rule="evenodd" clip-rule="evenodd" d="M4.49985 1.61235L4.40597 1.61233C3.7997 1.61208 3.37139 1.61191 3.00251 1.71074C2.00606 1.97774 1.22774 2.75606 0.960744 3.75251C0.861905 4.12139 0.862081 4.5497 0.862329 5.15597L0.862355 5.24985V11.3999L0.862354 11.4268C0.862347 12.034 0.862341 12.5283 0.895126 12.9296C0.929002 13.3442 1.00103 13.7153 1.17707 14.0608C1.45391 14.6041 1.89564 15.0458 2.43896 15.3226C2.78446 15.4987 3.15553 15.5707 3.57015 15.6046C3.82512 15.6254 4.11767 15.633 4.45288 15.6358C4.46844 15.6369 4.4841 15.6375 4.49982 15.6375H12.7985H12.8223C12.9137 15.6375 13.0021 15.6375 13.0876 15.6374H13.4999C13.524 15.6374 13.5479 15.636 13.5713 15.6334C13.758 15.63 13.9277 15.6237 14.0823 15.6122C14.4361 15.5859 14.7545 15.5301 15.0616 15.3959C15.5492 15.1828 15.9684 14.8391 16.273 14.4028C16.4648 14.128 16.582 13.8267 16.6772 13.485C16.7687 13.1561 16.8499 12.75 16.949 12.2545L16.9537 12.231L17.3008 10.4957L17.3063 10.4681C17.4 9.99959 17.4784 9.60764 17.5141 9.28564C17.551 8.95184 17.5516 8.62336 17.4401 8.30117C17.2737 7.8199 16.9408 7.41389 16.5015 7.15625C16.2322 6.99827 15.9392 6.93143 15.6348 6.89884C15.6286 6.54459 15.6077 6.25907 15.5389 6.00234C15.2719 5.00603 14.4937 4.22782 13.4974 3.96079C13.1284 3.8619 12.7 3.86208 12.0936 3.86233L11.9997 3.86235H9.74102C9.16035 3.86235 8.97392 3.85826 8.8054 3.8178C8.64087 3.7783 8.48358 3.71315 8.33931 3.62474C8.19154 3.53419 8.05682 3.40526 7.64622 2.99466L7.38262 2.73105L7.34876 2.69719C7.11296 2.46127 6.94398 2.2922 6.75204 2.15438C6.39075 1.89496 5.9744 1.7225 5.53549 1.65047C5.30232 1.6122 5.06327 1.61226 4.72972 1.61235L4.68184 1.61235H4.49985ZM14.3582 6.8625C14.3523 6.58921 14.3386 6.44894 14.3074 6.33241C14.1583 5.77603 13.7237 5.34145 13.1673 5.19233C12.9826 5.14283 12.7384 5.13735 11.9997 5.13735H9.74102L9.67163 5.13737C9.18826 5.13755 8.84139 5.13767 8.50776 5.05757C8.21313 4.98684 7.93147 4.87017 7.67312 4.71185C7.38057 4.53258 7.13539 4.28722 6.79371 3.9453L6.79371 3.94529L6.74466 3.89622L6.48105 3.63262C6.19793 3.34949 6.10533 3.25966 6.00838 3.19004C5.80662 3.04517 5.57412 2.94886 5.32901 2.90864C5.21124 2.88931 5.08223 2.88735 4.68184 2.88735H4.49985C3.76133 2.88735 3.51713 2.89283 3.33251 2.9423C2.77605 3.0914 2.3414 3.52605 2.1923 4.08251C2.14283 4.26713 2.13735 4.51133 2.13735 5.24985V11.3999C2.13735 12.0404 2.13785 12.4825 2.16589 12.8257C2.19333 13.1615 2.24391 13.3461 2.31311 13.4819C2.4677 13.7853 2.71438 14.032 3.01779 14.1866C3.1536 14.2558 3.3382 14.3064 3.67397 14.3338C3.76774 14.3415 3.86889 14.3471 3.97946 14.3512L4.7959 10.269L4.80057 10.2456C4.89969 9.75 4.9809 9.3439 5.07247 9.01504C5.16764 8.6733 5.28486 8.37201 5.47668 8.09723C5.78125 7.66091 6.20047 7.31723 6.68804 7.10414C6.99511 6.96995 7.31354 6.91408 7.66731 6.88779C8.00773 6.86249 8.42188 6.86249 8.92731 6.8625L8.95111 6.8625H14.3223L14.3504 6.8625H14.3504C14.353 6.8625 14.3556 6.8625 14.3582 6.8625ZM13.0634 14.3624H11.2499H5.27747L6.04614 10.519C6.15107 9.99436 6.22338 9.6349 6.30074 9.35707C6.37595 9.08699 6.44484 8.93779 6.52215 8.82702C6.69224 8.58336 6.92635 8.39144 7.19863 8.27244C7.32241 8.21835 7.48223 8.18006 7.76181 8.15928C8.04941 8.13791 8.41608 8.1375 8.95111 8.1375H14.3223C14.8355 8.1375 15.1791 8.13807 15.4397 8.16085C15.6947 8.18314 15.7991 8.22237 15.8565 8.25603C16.0337 8.35999 16.168 8.52382 16.2352 8.71802C16.257 8.78088 16.275 8.89093 16.2468 9.1454C16.218 9.40537 16.1512 9.74237 16.0506 10.2457L15.7035 11.981C15.5986 12.5056 15.5263 12.8651 15.4489 13.1429C15.3737 13.413 15.3048 13.5622 15.2275 13.673C15.0574 13.9166 14.8233 14.1086 14.551 14.2276C14.4272 14.2817 14.2674 14.3199 13.9878 14.3407C13.7503 14.3584 13.4589 14.3617 13.0634 14.3624Z" fill="#707878"/>
</svg>
