<svg width="18" height="19" viewBox="0 0 18 19" fill="none" xmlns="http://www.w3.org/2000/svg">
<path fill-rule="evenodd" clip-rule="evenodd" d="M2.88752 9.49981C2.88752 6.12396 5.62418 3.3873 9.00002 3.3873C12.3759 3.3873 15.1125 6.12396 15.1125 9.49981C15.1125 12.8756 12.3759 15.6123 9.00002 15.6123C5.62418 15.6123 2.88752 12.8756 2.88752 9.49981ZM9.00002 2.1123C4.92002 2.1123 1.61252 5.4198 1.61252 9.49981C1.61252 13.5798 4.92002 16.8873 9.00002 16.8873C13.08 16.8873 16.3875 13.5798 16.3875 9.49981C16.3875 5.4198 13.08 2.1123 9.00002 2.1123ZM9.6375 6.4998C9.6375 6.14772 9.35208 5.8623 9 5.8623C8.64792 5.8623 8.3625 6.14772 8.3625 6.4998V8.86231H6C5.64792 8.86231 5.3625 9.14772 5.3625 9.49981C5.3625 9.85189 5.64792 10.1373 6 10.1373H8.3625V12.4998C8.3625 12.8519 8.64792 13.1373 9 13.1373C9.35208 13.1373 9.6375 12.8519 9.6375 12.4998V10.1373H12C12.3521 10.1373 12.6375 9.85189 12.6375 9.49981C12.6375 9.14772 12.3521 8.86231 12 8.86231H9.6375V6.4998Z" fill="white"/>
</svg>
