<svg width="44" height="45" viewBox="0 0 44 45" fill="none" xmlns="http://www.w3.org/2000/svg">
<path d="M0 12.5C0 5.87258 5.37258 0.5 12 0.5H32C38.6274 0.5 44 5.87258 44 12.5V32.5C44 39.1274 38.6274 44.5 32 44.5H12C5.37258 44.5 0 39.1274 0 32.5V12.5Z" fill="white"/>
<path fill-rule="evenodd" clip-rule="evenodd" d="M14 14.65C13.5306 14.65 13.15 15.0305 13.15 15.5C13.15 15.9694 13.5306 16.35 14 16.35L30 16.35C30.4695 16.35 30.85 15.9694 30.85 15.5C30.85 15.0305 30.4695 14.65 30 14.65L14 14.65ZM13.15 22.5C13.15 22.0305 13.5306 21.65 14 21.65L30 21.65C30.4695 21.65 30.85 22.0305 30.85 22.5C30.85 22.9694 30.4695 23.35 30 23.35L14 23.35C13.5306 23.35 13.15 22.9694 13.15 22.5ZM13.15 29.5C13.15 29.0305 13.5306 28.65 14 28.65L30 28.65C30.4695 28.65 30.85 29.0305 30.85 29.5C30.85 29.9694 30.4695 30.35 30 30.35L14 30.35C13.5306 30.35 13.15 29.9694 13.15 29.5Z" fill="#161918"/>
<path d="M12 1.5H32V-0.5H12V1.5ZM43 12.5V32.5H45V12.5H43ZM32 43.5H12V45.5H32V43.5ZM1 32.5V12.5H-1V32.5H1ZM12 43.5C5.92487 43.5 1 38.5751 1 32.5H-1C-1 39.6797 4.8203 45.5 12 45.5V43.5ZM43 32.5C43 38.5751 38.0751 43.5 32 43.5V45.5C39.1797 45.5 45 39.6797 45 32.5H43ZM32 1.5C38.0751 1.5 43 6.42487 43 12.5H45C45 5.3203 39.1797 -0.5 32 -0.5V1.5ZM12 -0.5C4.8203 -0.5 -1 5.3203 -1 12.5H1C1 6.42487 5.92487 1.5 12 1.5V-0.5Z" fill="#D4D9D7"/>
</svg>
