<svg width="32" height="33" viewBox="0 0 32 33" fill="none" xmlns="http://www.w3.org/2000/svg">
<path d="M0 12.5C0 5.87258 5.37258 0.5 12 0.5H20C26.6274 0.5 32 5.87258 32 12.5V20.5C32 27.1274 26.6274 32.5 20 32.5H12C5.37258 32.5 0 27.1274 0 20.5V12.5Z" fill="white"/>
<path fill-rule="evenodd" clip-rule="evenodd" d="M17.9508 11.549C18.1998 11.798 18.1998 12.2016 17.9508 12.4506L13.9016 16.4998L17.9508 20.549C18.1998 20.798 18.1998 21.2016 17.9508 21.4506C17.7019 21.6995 17.2982 21.6995 17.0493 21.4506L12.5493 16.9506C12.3003 16.7016 12.3003 16.298 12.5493 16.049L17.0493 11.549C17.2982 11.3001 17.7019 11.3001 17.9508 11.549Z" fill="#2792A0"/>
<path d="M12 1.5H20V-0.5H12V1.5ZM31 12.5V20.5H33V12.5H31ZM20 31.5H12V33.5H20V31.5ZM1 20.5V12.5H-1V20.5H1ZM12 31.5C5.92487 31.5 1 26.5751 1 20.5H-1C-1 27.6797 4.8203 33.5 12 33.5V31.5ZM31 20.5C31 26.5751 26.0751 31.5 20 31.5V33.5C27.1797 33.5 33 27.6797 33 20.5H31ZM20 1.5C26.0751 1.5 31 6.42487 31 12.5H33C33 5.3203 27.1797 -0.5 20 -0.5V1.5ZM12 -0.5C4.8203 -0.5 -1 5.3203 -1 12.5H1C1 6.42487 5.92487 1.5 12 1.5V-0.5Z" fill="#D4D9D7"/>
</svg>
