<svg width="22" height="21" viewBox="0 0 22 21" fill="none" xmlns="http://www.w3.org/2000/svg">
<path d="M19.25 0H2.75C1.50781 0 0.5 1.00781 0.5 2.25V18.75C0.5 19.9922 1.50781 21 2.75 21H19.25C20.4922 21 21.5 19.9922 21.5 18.75V2.25C21.5 1.00781 20.4922 0 19.25 0ZM16.9578 7.44375C16.9672 7.575 16.9672 7.71094 16.9672 7.84219C16.9672 11.9062 13.8734 16.5891 8.22031 16.5891C6.47656 16.5891 4.85938 16.0828 3.5 15.2109C3.74844 15.2391 3.9875 15.2484 4.24063 15.2484C5.67969 15.2484 7.00156 14.7609 8.05625 13.9359C6.70625 13.9078 5.57188 13.0219 5.18281 11.8031C5.65625 11.8734 6.08281 11.8734 6.57031 11.7469C5.16406 11.4609 4.10938 10.2234 4.10938 8.72812V8.69062C4.51719 8.92031 4.99531 9.06094 5.49687 9.07969C5.0752 8.7992 4.72952 8.41869 4.49069 7.9721C4.25186 7.52552 4.1273 7.02675 4.12813 6.52031C4.12812 5.94844 4.27813 5.42344 4.54531 4.96875C6.05938 6.83437 8.33281 8.05313 10.8828 8.18438C10.4469 6.09844 12.0078 4.40625 13.8828 4.40625C14.7688 4.40625 15.5656 4.77656 16.1281 5.37656C16.8219 5.24531 17.4875 4.9875 18.0781 4.63594C17.8484 5.34844 17.3656 5.94844 16.7281 6.32812C17.3469 6.2625 17.9469 6.08906 18.5 5.85C18.0828 6.46406 17.5578 7.00781 16.9578 7.44375Z" fill="#2792A0"/>
</svg>
