<svg width="24" height="25" viewBox="0 0 24 25" fill="none" xmlns="http://www.w3.org/2000/svg">
<path fill-rule="evenodd" clip-rule="evenodd" d="M11.9984 4.01409C7.49732 4.01409 3.84844 7.66297 3.84844 12.1641C3.84844 16.6652 7.49732 20.3141 11.9984 20.3141C16.4996 20.3141 20.1484 16.6652 20.1484 12.1641C20.1484 7.66297 16.4996 4.01409 11.9984 4.01409ZM2.14844 12.1641C2.14844 6.72408 6.55843 2.31409 11.9984 2.31409C17.4384 2.31409 21.8484 6.72408 21.8484 12.1641C21.8484 17.6041 17.4384 22.0141 11.9984 22.0141C6.55843 22.0141 2.14844 17.6041 2.14844 12.1641ZM11.9984 10.3141C12.4679 10.3141 12.8484 10.6946 12.8484 11.1641V16.1641C12.8484 16.6335 12.4679 17.0141 11.9984 17.0141C11.529 17.0141 11.1484 16.6335 11.1484 16.1641V11.1641C11.1484 10.6946 11.529 10.3141 11.9984 10.3141ZM11.9984 9.16409C12.5507 9.16409 12.9984 8.71637 12.9984 8.16409C12.9984 7.6118 12.5507 7.16409 11.9984 7.16409C11.4462 7.16409 10.9984 7.6118 10.9984 8.16409C10.9984 8.71637 11.4462 9.16409 11.9984 9.16409Z" fill="#F59E0B"/>
</svg>
