<svg width="18" height="19" viewBox="0 0 18 19" fill="none" xmlns="http://www.w3.org/2000/svg">
<path fill-rule="evenodd" clip-rule="evenodd" d="M2.1373 9.49999C2.1373 9.26234 2.23396 8.84985 2.49881 8.34135C2.7577 7.84426 3.15796 7.2937 3.71346 6.78093C4.81683 5.76243 6.53827 4.88749 8.9998 4.88749C11.4613 4.88749 13.1828 5.76243 14.2861 6.78093C14.8417 7.2937 15.2419 7.84426 15.5008 8.34135C15.7656 8.84985 15.8623 9.26234 15.8623 9.49999C15.8623 9.73764 15.7656 10.1501 15.5008 10.6586C15.2419 11.1557 14.8417 11.7063 14.2861 12.2191C13.1828 13.2375 11.4613 14.1125 8.9998 14.1125C6.53827 14.1125 4.81683 13.2375 3.71346 12.2191C3.15796 11.7063 2.7577 11.1557 2.49881 10.6586C2.23396 10.1501 2.1373 9.73764 2.1373 9.49999ZM8.9998 3.61249C6.21133 3.61249 4.18278 4.61255 2.84865 5.84405C2.1854 6.45628 1.69503 7.12446 1.36799 7.75238C1.0469 8.36888 0.862305 8.98764 0.862305 9.49999C0.862305 10.0123 1.0469 10.6311 1.36799 11.2476C1.69503 11.8755 2.1854 12.5437 2.84865 13.1559C4.18278 14.3874 6.21133 15.3875 8.9998 15.3875C11.7883 15.3875 13.8168 14.3874 15.151 13.1559C15.8142 12.5437 16.3046 11.8755 16.6316 11.2476C16.9527 10.6311 17.1373 10.0123 17.1373 9.49999C17.1373 8.98764 16.9527 8.36888 16.6316 7.75238C16.3046 7.12446 15.8142 6.45628 15.151 5.84405C13.8168 4.61255 11.7883 3.61249 8.9998 3.61249ZM7.38723 9.50001C7.38723 8.60945 8.10917 7.88751 8.99973 7.88751C9.89029 7.88751 10.6122 8.60945 10.6122 9.50001C10.6122 10.3906 9.89029 11.1125 8.99973 11.1125C8.10917 11.1125 7.38723 10.3906 7.38723 9.50001ZM8.99973 6.61251C7.40501 6.61251 6.11223 7.90528 6.11223 9.50001C6.11223 11.0947 7.40501 12.3875 8.99973 12.3875C10.5945 12.3875 11.8872 11.0947 11.8872 9.50001C11.8872 7.90528 10.5945 6.61251 8.99973 6.61251Z" fill="white"/>
</svg>
