<svg width="22" height="26" viewBox="0 0 22 26" fill="none" xmlns="http://www.w3.org/2000/svg">
<path d="M20.3077 6.16667V8.33333H0V6.16667L10.1538 0L20.3077 6.16667ZM0 20H20.3077V23.3333H0V20ZM8.46154 10H11.8462V18.3333H8.46154V10ZM1.69231 10H5.07692V18.3333H1.69231V10ZM15.2308 10H18.6154V18.3333H15.2308V10Z" fill="black"/>
<ellipse cx="15.4308" cy="19.3333" rx="6.43077" ry="6.33333" fill="white"/>
<path d="M15.1355 15.1714H15.893C15.9604 15.1714 15.994 15.2036 15.994 15.2679V23.7606C15.994 23.825 15.9604 23.8571 15.893 23.8571H15.1355C15.0682 23.8571 15.0345 23.825 15.0345 23.7606V15.2679C15.0345 15.2036 15.0682 15.1714 15.1355 15.1714Z" fill="black"/>
<path d="M11.2724 19.0559H19.7561C19.8235 19.0559 19.8571 19.088 19.8571 19.1524V19.8762C19.8571 19.9405 19.8235 19.9727 19.7561 19.9727H11.2724C11.2051 19.9727 11.1714 19.9405 11.1714 19.8762V19.1524C11.1714 19.088 11.2051 19.0559 11.2724 19.0559Z" fill="black"/>
</svg>
