<?xml version="1.0" encoding="UTF-8" standalone="no"?>
<svg
   xmlns:dc="http://purl.org/dc/elements/1.1/"
   xmlns:cc="http://creativecommons.org/ns#"
   xmlns:rdf="http://www.w3.org/1999/02/22-rdf-syntax-ns#"
   xmlns:svg="http://www.w3.org/2000/svg"
   xmlns="http://www.w3.org/2000/svg"
   xmlns:sodipodi="http://sodipodi.sourceforge.net/DTD/sodipodi-0.dtd"
   xmlns:inkscape="http://www.inkscape.org/namespaces/inkscape"
   width="44"
   height="44"
   viewBox="0 0 44 44"
   fill="none"
   version="1.1"
   id="svg6"
   sodipodi:docname="applicationDetails.svg"
   inkscape:version="1.0 (4035a4fb49, 2020-05-01)">
  <metadata
     id="metadata12">
    <rdf:RDF>
      <cc:Work
         rdf:about="">
        <dc:format>image/svg+xml</dc:format>
        <dc:type
           rdf:resource="http://purl.org/dc/dcmitype/StillImage" />
      </cc:Work>
    </rdf:RDF>
  </metadata>
  <defs
     id="defs10" />
  <sodipodi:namedview
     inkscape:document-rotation="0"
     pagecolor="#ffffff"
     bordercolor="#666666"
     borderopacity="1"
     objecttolerance="10"
     gridtolerance="10"
     guidetolerance="10"
     inkscape:pageopacity="0"
     inkscape:pageshadow="2"
     inkscape:window-width="1366"
     inkscape:window-height="706"
     id="namedview8"
     showgrid="false"
     inkscape:zoom="10.318182"
     inkscape:cx="22"
     inkscape:cy="22"
     inkscape:window-x="-8"
     inkscape:window-y="-8"
     inkscape:window-maximized="1"
     inkscape:current-layer="svg6" />
  <circle
     cx="22"
     cy="22"
     r="22"
     fill="#C5D93A"
     fill-opacity="0.15"
     id="circle2" />
  <path
     fill-rule="evenodd"
     clip-rule="evenodd"
     d="M13 13V31C13 31.8 13.6667 32 14 32H30C30.8 32 31 31.3333 31 31V17L26 12H14C13.2 12 13 12.6667 13 13ZM21 23.4C22.3255 23.4 23.4 22.3255 23.4 21C23.4 19.6745 22.3255 18.6 21 18.6C19.6745 18.6 18.6 19.6745 18.6 21C18.6 22.3255 19.6745 23.4 21 23.4ZM23.9743 23.6747C24.612 22.966 25 22.0283 25 21C25 18.7909 23.2091 17 21 17C18.7909 17 17 18.7909 17 21C17 23.2091 18.7909 25 21 25C21.6033 25 22.1754 24.8664 22.6884 24.6273L24.9821 27.5986L26.2487 26.6209L23.9743 23.6747Z"
     fill="#C5D93A"
     id="path4"
     style="fill:#6dd0d1;fill-opacity:1" />
</svg>
