<?xml version="1.0" encoding="UTF-8" standalone="no"?>
<svg
   xmlns:dc="http://purl.org/dc/elements/1.1/"
   xmlns:cc="http://creativecommons.org/ns#"
   xmlns:rdf="http://www.w3.org/1999/02/22-rdf-syntax-ns#"
   xmlns:svg="http://www.w3.org/2000/svg"
   xmlns="http://www.w3.org/2000/svg"
   xmlns:sodipodi="http://sodipodi.sourceforge.net/DTD/sodipodi-0.dtd"
   xmlns:inkscape="http://www.inkscape.org/namespaces/inkscape"
   width="36"
   height="32"
   viewBox="0 0 36 32"
   fill="none"
   version="1.1"
   id="svg10"
   sodipodi:docname="autopayment.svg"
   inkscape:version="1.0 (4035a4fb49, 2020-05-01)">
  <metadata
     id="metadata16">
    <rdf:RDF>
      <cc:Work
         rdf:about="">
        <dc:format>image/svg+xml</dc:format>
        <dc:type
           rdf:resource="http://purl.org/dc/dcmitype/StillImage" />
      </cc:Work>
    </rdf:RDF>
  </metadata>
  <defs
     id="defs14" />
  <sodipodi:namedview
     inkscape:document-rotation="0"
     pagecolor="#ffffff"
     bordercolor="#666666"
     borderopacity="1"
     objecttolerance="10"
     gridtolerance="10"
     guidetolerance="10"
     inkscape:pageopacity="0"
     inkscape:pageshadow="2"
     inkscape:window-width="1366"
     inkscape:window-height="706"
     id="namedview12"
     showgrid="false"
     inkscape:zoom="14.1875"
     inkscape:cx="18"
     inkscape:cy="16"
     inkscape:window-x="-8"
     inkscape:window-y="-8"
     inkscape:window-maximized="1"
     inkscape:current-layer="svg10" />
  <path
     d="M9.52358 5.91003C11.943 3.81358 15.0382 2.66156 18.2396 2.66603C25.6036 2.66603 31.5729 8.63536 31.5729 15.9994C31.5729 18.8474 30.6796 21.4874 29.1596 23.6527L24.9062 15.9994H28.9062C28.9064 13.9082 28.2919 11.8631 27.1391 10.1184C25.9864 8.37364 24.3462 7.00624 22.4225 6.18619C20.4988 5.36615 18.3765 5.12963 16.3195 5.50605C14.2625 5.88247 12.3615 6.85523 10.8529 8.30336L9.52358 5.91003ZM26.9556 26.0887C24.5362 28.1851 21.4409 29.3372 18.2396 29.3327C10.8756 29.3327 4.90625 23.3634 4.90625 15.9994C4.90625 13.1514 5.79958 10.5114 7.31958 8.34603L11.5729 15.9994H7.57292C7.57275 18.0905 8.18725 20.1356 9.34003 21.8804C10.4928 23.6251 12.133 24.9925 14.0567 25.8125C15.9803 26.6326 18.1026 26.8691 20.1596 26.4927C22.2167 26.1162 24.1176 25.1435 25.6263 23.6954L26.9556 26.0887Z"
     fill="#C5D93A"
     id="path2"
     style="fill:#6dd0d1;fill-opacity:1" />
  <path
     d="M2.49514 16.1963L6.98295 9.80418L6.1191 15.8962L2.49514 16.1963Z"
     fill="#C5D93A"
     stroke="#C5D93A"
     id="path4"
     style="fill:#6dd0d1;fill-opacity:1;stroke:#6dd0d1;stroke-opacity:1" />
  <path
     d="M35.2393 16L29.2393 23.5L30.7393 16H35.2393Z"
     fill="#C5D93A"
     id="path6"
     style="fill:#6dd0d1;fill-opacity:1" />
  <path
     d="M19.5986 18.4023C19.5986 18.015 19.4756 17.696 19.2295 17.4453C18.9834 17.1901 18.5732 16.9622 17.999 16.7617C17.4248 16.5566 16.9782 16.3675 16.6592 16.1943C15.5973 15.6247 15.0664 14.7816 15.0664 13.665C15.0664 12.9085 15.2965 12.2865 15.7568 11.7988C16.2171 11.3112 16.8415 11.0218 17.6299 10.9307V9.44043H18.7236V10.9443C19.5166 11.0583 20.1296 11.3955 20.5625 11.9561C20.9954 12.512 21.2119 13.2367 21.2119 14.1299H19.5576C19.5576 13.5557 19.4277 13.1045 19.168 12.7764C18.9128 12.4437 18.5641 12.2773 18.1221 12.2773C17.6846 12.2773 17.3428 12.3958 17.0967 12.6328C16.8506 12.8698 16.7275 13.2093 16.7275 13.6514C16.7275 14.0479 16.8483 14.3669 17.0898 14.6084C17.3359 14.8454 17.7507 15.071 18.334 15.2852C18.9173 15.4993 19.3753 15.6976 19.708 15.8799C20.0407 16.0622 20.321 16.2718 20.5488 16.5088C20.7767 16.7412 20.9521 17.0101 21.0752 17.3154C21.1982 17.6208 21.2598 17.9785 21.2598 18.3887C21.2598 19.1589 21.0228 19.7832 20.5488 20.2617C20.0794 20.7402 19.4232 21.0228 18.5801 21.1094V22.4424H17.4932V21.1162C16.5908 21.016 15.8958 20.6924 15.4082 20.1455C14.9251 19.5986 14.6836 18.874 14.6836 17.9717H16.3447C16.3447 18.5459 16.4883 18.9902 16.7754 19.3047C17.0671 19.6191 17.4772 19.7764 18.0059 19.7764C18.5254 19.7764 18.9196 19.651 19.1885 19.4004C19.4619 19.1497 19.5986 18.8171 19.5986 18.4023Z"
     fill="#C5D93A"
     id="path8"
     style="fill:#6dd0d1;fill-opacity:1" />
</svg>
