<?xml version="1.0" encoding="UTF-8" standalone="no"?>
<svg
   xmlns:dc="http://purl.org/dc/elements/1.1/"
   xmlns:cc="http://creativecommons.org/ns#"
   xmlns:rdf="http://www.w3.org/1999/02/22-rdf-syntax-ns#"
   xmlns:svg="http://www.w3.org/2000/svg"
   xmlns="http://www.w3.org/2000/svg"
   xmlns:sodipodi="http://sodipodi.sourceforge.net/DTD/sodipodi-0.dtd"
   xmlns:inkscape="http://www.inkscape.org/namespaces/inkscape"
   width="32"
   height="32"
   viewBox="0 0 32 32"
   fill="none"
   version="1.1"
   id="svg4"
   sodipodi:docname="bank.svg"
   inkscape:version="1.0 (4035a4fb49, 2020-05-01)">
  <metadata
     id="metadata10">
    <rdf:RDF>
      <cc:Work
         rdf:about="">
        <dc:format>image/svg+xml</dc:format>
        <dc:type
           rdf:resource="http://purl.org/dc/dcmitype/StillImage" />
      </cc:Work>
    </rdf:RDF>
  </metadata>
  <defs
     id="defs8" />
  <sodipodi:namedview
     inkscape:document-rotation="0"
     pagecolor="#ffffff"
     bordercolor="#666666"
     borderopacity="1"
     objecttolerance="10"
     gridtolerance="10"
     guidetolerance="10"
     inkscape:pageopacity="0"
     inkscape:pageshadow="2"
     inkscape:window-width="1366"
     inkscape:window-height="706"
     id="namedview6"
     showgrid="false"
     inkscape:zoom="14.1875"
     inkscape:cx="16"
     inkscape:cy="16"
     inkscape:window-x="-8"
     inkscape:window-y="-8"
     inkscape:window-maximized="1"
     inkscape:current-layer="svg4" />
  <path
     d="M2.66675 26.666H29.3334V29.3327H2.66675V26.666ZM5.33341 15.9993H8.00008V25.3327H5.33341V15.9993ZM12.0001 15.9993H14.6667V25.3327H12.0001V15.9993ZM17.3334 15.9993H20.0001V25.3327H17.3334V15.9993ZM24.0001 15.9993H26.6667V25.3327H24.0001V15.9993ZM2.66675 9.33268L16.0001 2.66602L29.3334 9.33268V14.666H2.66675V9.33268ZM16.0001 10.666C16.3537 10.666 16.6928 10.5255 16.9429 10.2755C17.1929 10.0254 17.3334 9.6863 17.3334 9.33268C17.3334 8.97906 17.1929 8.63992 16.9429 8.38987C16.6928 8.13983 16.3537 7.99935 16.0001 7.99935C15.6465 7.99935 15.3073 8.13983 15.0573 8.38987C14.8072 8.63992 14.6667 8.97906 14.6667 9.33268C14.6667 9.6863 14.8072 10.0254 15.0573 10.2755C15.3073 10.5255 15.6465 10.666 16.0001 10.666Z"
     fill="#C5D93A"
     id="path2"
     style="fill:#6dd0d1;fill-opacity:1" />
</svg>
