<svg width="21" height="24" viewBox="0 0 21 24" fill="none" xmlns="http://www.w3.org/2000/svg">
<path d="M14.875 6H19.25V8H17.5V21C17.5 21.2652 17.4078 21.5196 17.2437 21.7071C17.0796 21.8946 16.8571 22 16.625 22H4.375C4.14294 22 3.92038 21.8946 3.75628 21.7071C3.59219 21.5196 3.5 21.2652 3.5 21V8H1.75V6H6.125V3C6.125 2.73478 6.21719 2.48043 6.38128 2.29289C6.54538 2.10536 6.76794 2 7 2H14C14.2321 2 14.4546 2.10536 14.6187 2.29289C14.7828 2.48043 14.875 2.73478 14.875 3V6ZM7.875 11V17H9.625V11H7.875ZM11.375 11V17H13.125V11H11.375ZM7.875 4V6H13.125V4H7.875Z" fill="black"/>
</svg>
