<svg width="18" height="20" viewBox="0 0 18 20" fill="none" xmlns="http://www.w3.org/2000/svg">
<g clip-path="url(#clip0)">
<path d="M17.8519 2.52449C17.8412 2.51332 15.7268 0.272891 15.7268 0.272891C15.646 0.186719 15.5624 0.0976562 15.4063 0.0976562H6.89429C6.64566 0.0976562 6.44338 0.322383 6.44338 0.598633V2.13703L3.44332 2.70844C3.20285 2.75531 3.04113 3.01102 3.08279 3.27793L3.23505 4.26434C2.25992 4.62895 1.25878 5.0048 0.292297 5.39055C0.0639222 5.48332 -0.0559255 5.76547 0.0255667 6.02074L1.94809 11.9589C1.98676 12.0784 2.08811 12.1528 2.19622 12.1528C2.22582 12.1528 2.25598 12.1472 2.28545 12.1354C2.42248 12.0806 2.49361 11.9128 2.44432 11.7605L0.550239 5.91023C1.46079 5.54801 2.40375 5.19348 3.3253 4.84883L4.23131 10.7178L5.27383 17.4768C5.31148 17.7154 5.50024 17.8852 5.71329 17.8852C5.7374 17.8852 5.76187 17.883 5.78641 17.8785L8.61002 17.3401L10.8164 16.9199L7.49799 18.2452L4.88114 19.2906L2.84882 13.0098C2.79957 12.8575 2.64857 12.7785 2.5115 12.8332C2.37446 12.8879 2.30334 13.0557 2.35259 13.208L4.41373 19.5781C4.47965 19.7784 4.65044 19.9029 4.83097 19.9029C4.88086 19.9029 4.93152 19.8934 4.98088 19.8734L7.67634 18.7966L13.7968 16.3523L14.9661 16.1296H17.5491C17.7977 16.1296 18 15.9043 18 15.6275V2.85461C18 2.67926 17.9144 2.5898 17.8519 2.52449ZM17.1533 2.59387H15.8339L15.8012 2.59402C15.738 2.59449 15.5901 2.5957 15.5526 2.5543C15.5439 2.54473 15.5338 2.51277 15.5338 2.45344L15.5307 0.874727L17.1533 2.59387ZM17.4727 15.5436H6.97072V9.83391C6.97072 9.67211 6.85266 9.54094 6.70705 9.54094C6.56143 9.54094 6.44338 9.67211 6.44338 9.83391V15.6274C6.44338 15.9042 6.64566 16.1295 6.89429 16.1295H11.8447L8.52086 16.7625L5.77931 17.2853L4.75106 10.6187L3.6166 3.26988L6.44334 2.73148V8.47453C6.44334 8.63633 6.56139 8.7675 6.70701 8.7675C6.85263 8.7675 6.97068 8.63633 6.97068 8.47453V0.683555H15.003L15.0065 2.4541C15.0065 2.66871 15.0652 2.8423 15.181 2.97012C15.359 3.16648 15.6106 3.18016 15.7668 3.18016C15.7803 3.18016 15.793 3.18004 15.8049 3.17996L17.4727 3.17984V15.5436Z" fill="black"/>
<path d="M8.24219 4.64648C8.24219 4.80828 8.36024 4.93945 8.50586 4.93945H16.0446C16.1902 4.93945 16.3083 4.80828 16.3083 4.64648C16.3083 4.48469 16.1902 4.35352 16.0446 4.35352H8.50586C8.36024 4.35352 8.24219 4.48469 8.24219 4.64648Z" fill="black"/>
<path d="M16.0446 6.43555H8.50586C8.36024 6.43555 8.24219 6.56672 8.24219 6.72852C8.24219 6.89031 8.36024 7.02148 8.50586 7.02148H16.0446C16.1902 7.02148 16.3083 6.89031 16.3083 6.72852C16.3083 6.56672 16.1902 6.43555 16.0446 6.43555Z" fill="black"/>
<path d="M16.0446 8.51562H8.50586C8.36024 8.51562 8.24219 8.6468 8.24219 8.80859C8.24219 8.97039 8.36024 9.10156 8.50586 9.10156H16.0446C16.1902 9.10156 16.3083 8.97039 16.3083 8.80859C16.3083 8.6468 16.1902 8.51562 16.0446 8.51562Z" fill="black"/>
<path d="M16.0446 10.5977H8.50586C8.36024 10.5977 8.24219 10.7288 8.24219 10.8906C8.24219 11.0524 8.36024 11.1836 8.50586 11.1836H16.0446C16.1902 11.1836 16.3083 11.0524 16.3083 10.8906C16.3083 10.7288 16.1902 10.5977 16.0446 10.5977Z" fill="black"/>
<path d="M16.0446 12.6797H8.50586C8.36024 12.6797 8.24219 12.8109 8.24219 12.9727C8.24219 13.1345 8.36024 13.2656 8.50586 13.2656H16.0446C16.1902 13.2656 16.3083 13.1345 16.3083 12.9727C16.3083 12.8109 16.1902 12.6797 16.0446 12.6797Z" fill="black"/>
</g>
<defs>
<clipPath id="clip0">
<rect width="18" height="20" fill="white"/>
</clipPath>
</defs>
</svg>
