<svg width="20" height="20" viewBox="0 0 20 20" fill="none" xmlns="http://www.w3.org/2000/svg">
<path d="M19.9719 10.456C19.9719 10.4559 19.9719 10.4558 19.9718 10.4557L16.1958 1.63272C16.1156 1.44526 15.8873 1.35374 15.6858 1.42831C15.6857 1.42836 15.6855 1.4284 15.6854 1.4285L0.366301 7.10481C0.303827 7.12993 0.249648 7.17003 0.209259 7.22099C0.0818582 7.2826 0.00137412 7.40453 0 7.53811V17.037C0 17.2388 0.175789 17.4023 0.392605 17.4023H16.882C17.0988 17.4023 17.2746 17.2388 17.2746 17.037V11.8491L19.7528 10.9307C19.9542 10.8559 20.0523 10.6434 19.9719 10.456ZM16.4894 16.6717H0.78521V7.90345H16.4894V16.6717ZM6.55062 7.17459L13.1244 4.73703C13.7111 5.31089 14.524 5.63705 15.3752 5.64016L16.0309 7.17459H6.55062ZM17.2746 11.0644V7.53811C17.2746 7.33635 17.0988 7.17277 16.882 7.17277H16.8757L16.0438 5.22842C16.0346 5.21221 16.0238 5.19677 16.0116 5.18238C15.9695 5.00643 15.7944 4.88637 15.6013 4.90107C14.8094 4.96825 14.0346 4.6578 13.5429 4.07613C13.4206 3.93561 13.2055 3.90067 13.0392 3.99429C13.0206 3.99635 13.0021 3.99954 12.9838 4.00379L4.95821 6.97768C4.86109 7.01311 4.7834 7.0834 4.74267 7.17277H2.30538L15.6116 2.24248L19.0975 10.3878L17.2746 11.0644Z" fill="black"/>
<path d="M1.85063 14.2059C2.61288 14.4155 3.20934 14.9699 3.43558 15.6789C3.4852 15.8337 3.63816 15.9397 3.8117 15.9398C3.83206 15.9386 3.85228 15.9358 3.87216 15.9314C3.88978 15.936 3.90779 15.9395 3.92594 15.9416H13.3485C13.3647 15.9396 13.3807 15.9366 13.3964 15.9325C13.5925 15.9769 13.7902 15.8649 13.838 15.6824C13.8381 15.6817 13.8383 15.6811 13.8384 15.6804C14.0641 14.9706 14.6607 14.4155 15.4234 14.2055C15.6084 14.1529 15.7233 13.9814 15.6927 13.8036C15.698 13.7859 15.7017 13.7678 15.7041 13.7496V10.8268C15.7018 10.8085 15.6979 10.7904 15.6923 10.7727C15.7231 10.595 15.6081 10.4233 15.423 10.3709C14.6603 10.1609 14.0638 9.60557 13.8388 8.89562C13.782 8.72231 13.5959 8.61508 13.4038 8.645C13.3857 8.64029 13.3672 8.63687 13.3485 8.63477H3.92594C3.90617 8.63696 3.88659 8.64061 3.86745 8.64573C3.67649 8.61741 3.49226 8.72432 3.43558 8.89635C3.20978 9.60598 2.61327 10.1609 1.85063 10.3709C1.66567 10.4235 1.55073 10.595 1.58131 10.7727C1.5762 10.7905 1.57252 10.8085 1.57031 10.8268V13.7496C1.57257 13.7667 1.57625 13.7837 1.58131 13.8003C1.54911 13.9792 1.66429 14.1527 1.85063 14.2059ZM2.35552 10.9751C3.14387 10.6805 3.76871 10.0991 4.08534 9.36545H13.1887C13.5055 10.0991 14.1304 10.6805 14.9189 10.9751V13.6012C14.1308 13.8962 13.5061 14.4775 13.1891 15.2109H4.08534C3.76836 14.4775 3.14363 13.8962 2.35552 13.6012V10.9751Z" fill="black"/>
<path d="M8.99951 13.0723C8.99951 12.9339 8.95557 12.82 8.86768 12.7305C8.77979 12.6393 8.6333 12.5579 8.42822 12.4863C8.22314 12.4131 8.06364 12.3455 7.94971 12.2837C7.57048 12.0802 7.38086 11.7791 7.38086 11.3804C7.38086 11.1102 7.46305 10.888 7.62744 10.7139C7.79183 10.5397 8.01481 10.4364 8.29639 10.4038V9.87158H8.68701V10.4087C8.97021 10.4494 9.18913 10.5698 9.34375 10.77C9.49837 10.9686 9.57568 11.2274 9.57568 11.5464H8.98486C8.98486 11.3413 8.93848 11.1802 8.8457 11.063C8.75456 10.9442 8.63005 10.8848 8.47217 10.8848C8.31592 10.8848 8.19385 10.9271 8.10596 11.0117C8.01807 11.0964 7.97412 11.2176 7.97412 11.3755C7.97412 11.5171 8.01725 11.631 8.10352 11.7173C8.19141 11.8019 8.33952 11.8825 8.54785 11.959C8.75618 12.0355 8.91976 12.1063 9.03857 12.1714C9.15739 12.2365 9.25749 12.3114 9.33887 12.396C9.42025 12.479 9.48291 12.575 9.52686 12.6841C9.5708 12.7931 9.59277 12.9209 9.59277 13.0674C9.59277 13.3424 9.50814 13.5654 9.33887 13.7363C9.17122 13.9072 8.93685 14.0081 8.63574 14.0391V14.5151H8.24756V14.0415C7.92529 14.0057 7.67708 13.8901 7.50293 13.6948C7.3304 13.4995 7.24414 13.2407 7.24414 12.9185H7.8374C7.8374 13.1235 7.88867 13.2822 7.99121 13.3945C8.09538 13.5068 8.24186 13.563 8.43066 13.563C8.61621 13.563 8.757 13.5182 8.85303 13.4287C8.95068 13.3392 8.99951 13.2204 8.99951 13.0723Z" fill="black"/>
</svg>
