<?xml version="1.0" encoding="UTF-8" standalone="no"?>
<svg
   xmlns:dc="http://purl.org/dc/elements/1.1/"
   xmlns:cc="http://creativecommons.org/ns#"
   xmlns:rdf="http://www.w3.org/1999/02/22-rdf-syntax-ns#"
   xmlns:svg="http://www.w3.org/2000/svg"
   xmlns="http://www.w3.org/2000/svg"
   xmlns:sodipodi="http://sodipodi.sourceforge.net/DTD/sodipodi-0.dtd"
   xmlns:inkscape="http://www.inkscape.org/namespaces/inkscape"
   width="14"
   height="14"
   viewBox="0 0 14 14"
   fill="none"
   version="1.1"
   id="svg4"
   sodipodi:docname="overview_mail_icon.svg"
   inkscape:version="1.0 (4035a4fb49, 2020-05-01)">
  <metadata
     id="metadata10">
    <rdf:RDF>
      <cc:Work
         rdf:about="">
        <dc:format>image/svg+xml</dc:format>
        <dc:type
           rdf:resource="http://purl.org/dc/dcmitype/StillImage" />
      </cc:Work>
    </rdf:RDF>
  </metadata>
  <defs
     id="defs8" />
  <sodipodi:namedview
     inkscape:document-rotation="0"
     pagecolor="#ffffff"
     bordercolor="#666666"
     borderopacity="1"
     objecttolerance="10"
     gridtolerance="10"
     guidetolerance="10"
     inkscape:pageopacity="0"
     inkscape:pageshadow="2"
     inkscape:window-width="1366"
     inkscape:window-height="706"
     id="namedview6"
     showgrid="false"
     inkscape:zoom="32.428571"
     inkscape:cx="7"
     inkscape:cy="7"
     inkscape:window-x="-8"
     inkscape:window-y="-8"
     inkscape:window-maximized="1"
     inkscape:current-layer="svg4" />
  <path
     d="M1.75033 1.75H12.2503C12.405 1.75 12.5534 1.81146 12.6628 1.92085C12.7722 2.03025 12.8337 2.17862 12.8337 2.33333V11.6667C12.8337 11.8214 12.7722 11.9697 12.6628 12.0791C12.5534 12.1885 12.405 12.25 12.2503 12.25H1.75033C1.59562 12.25 1.44724 12.1885 1.33785 12.0791C1.22845 11.9697 1.16699 11.8214 1.16699 11.6667V2.33333C1.16699 2.17862 1.22845 2.03025 1.33785 1.92085C1.44724 1.81146 1.59562 1.75 1.75033 1.75ZM7.03533 6.81508L3.29499 3.63883L2.53958 4.52783L7.04291 8.35158L11.4652 4.52492L10.7022 3.64233L7.03591 6.81508H7.03533Z"
     fill="#C5D93A"
     id="path2"
     style="fill:#6dd0d1;fill-opacity:1" />
</svg>
