<svg width="16" height="16" viewBox="0 0 16 16" fill="none" xmlns="http://www.w3.org/2000/svg">
<g clip-path="url(#clip0)">
<path d="M15.2735 8.06711V5.81833C15.2735 5.0558 14.682 4.43566 13.9347 4.37553L11.8464 0.727861C11.6528 0.390503 11.3403 0.149382 10.9664 0.0492583C10.5942 -0.0501832 10.205 0.00204321 9.87194 0.195915L2.71286 4.3638H1.45551C0.65333 4.3638 0.000976562 5.01612 0.000976562 5.81833V14.5455C0.000976562 15.3476 0.653296 16 1.45551 16H13.819C14.6211 16 15.2735 15.3477 15.2735 14.5455V12.2967C15.6958 12.1461 16.0007 11.7462 16.0007 11.2728V9.09101C16.0007 8.61756 15.6958 8.21772 15.2735 8.06711ZM13.0897 4.3638H9.92025L12.2973 2.97987L13.0897 4.3638ZM11.936 2.34875L8.47485 4.3638H7.0392L11.577 1.7218L11.936 2.34875ZM10.238 0.824439C10.4025 0.728202 10.5946 0.702634 10.7782 0.751656C10.9639 0.80136 11.1187 0.921392 11.215 1.08935L11.2157 1.09068L5.59387 4.3638H4.1583L10.238 0.824439ZM14.5462 14.5455C14.5462 14.9464 14.2199 15.2727 13.819 15.2727H1.45551C1.05461 15.2727 0.72826 14.9464 0.72826 14.5455V5.81833C0.72826 5.41743 1.05461 5.09108 1.45551 5.09108H13.819C14.2199 5.09108 14.5462 5.41743 14.5462 5.81833V8.00012H12.3644C11.1613 8.00012 10.1826 8.97878 10.1826 10.1819C10.1826 11.385 11.1613 12.3637 12.3644 12.3637H14.5462V14.5455ZM15.2735 11.2728C15.2735 11.4734 15.1105 11.6364 14.9099 11.6364H12.3644C11.5622 11.6364 10.9099 10.9841 10.9099 10.1819C10.9099 9.37972 11.5622 8.72737 12.3644 8.72737H14.9099C15.1105 8.72737 15.2735 8.89035 15.2735 9.09101V11.2728Z" fill="black"/>
<path d="M12.3635 9.45508C11.9626 9.45508 11.6362 9.78143 11.6362 10.1823C11.6362 10.5832 11.9626 10.9096 12.3635 10.9096C12.7644 10.9096 13.0907 10.5832 13.0907 10.1823C13.0908 9.78143 12.7644 9.45508 12.3635 9.45508Z" fill="black"/>
</g>
<defs>
<clipPath id="clip0">
<rect width="16" height="16" fill="white"/>
</clipPath>
</defs>
</svg>
