<svg width="16" height="16" viewBox="0 0 16 16" fill="none" xmlns="http://www.w3.org/2000/svg">
<path d="M14.2857 1.71428H12.5714V0.571439C12.5714 0.255837 12.3156 0 12 0C11.6844 0 11.4286 0.255837 11.4286 0.571439V1.71428H4.57141V0.571439C4.57141 0.255837 4.31558 0 4.00001 0C3.68444 0 3.42857 0.255837 3.42857 0.571439V1.71428H1.71428C0.767511 1.71428 0 2.4818 0 3.42857V14.2857C0 15.2325 0.767511 16 1.71428 16H14.2857C15.2325 16 16 15.2325 16 14.2857V3.42857C16 2.4818 15.2325 1.71428 14.2857 1.71428ZM14.8571 14.2857C14.8571 14.6013 14.6013 14.8572 14.2857 14.8572H1.71428C1.39868 14.8572 1.14285 14.6013 1.14285 14.2857V6.85714H14.8571V14.2857ZM14.8571 5.71429H1.14285V3.42857C1.14285 3.11297 1.39868 2.85713 1.71428 2.85713H3.42857V3.99997C3.42857 4.31558 3.68441 4.57141 4.00001 4.57141C4.31561 4.57141 4.57145 4.31558 4.57145 3.99997V2.85713H11.4286V3.99997C11.4286 4.31558 11.6844 4.57141 12 4.57141C12.3156 4.57141 12.5715 4.31558 12.5715 3.99997V2.85713H14.2857C14.6014 2.85713 14.8572 3.11297 14.8572 3.42857V5.71429H14.8571Z" fill="black"/>
<path d="M8.39941 11.8867C8.39941 11.7207 8.34668 11.584 8.24121 11.4766C8.13574 11.3672 7.95996 11.2695 7.71387 11.1836C7.46777 11.0957 7.27637 11.0146 7.13965 10.9404C6.68457 10.6963 6.45703 10.335 6.45703 9.85645C6.45703 9.53223 6.55566 9.26562 6.75293 9.05664C6.9502 8.84766 7.21777 8.72363 7.55566 8.68457V8.0459H8.02441V8.69043C8.36426 8.73926 8.62695 8.88379 8.8125 9.12402C8.99805 9.3623 9.09082 9.67285 9.09082 10.0557H8.38184C8.38184 9.80957 8.32617 9.61621 8.21484 9.47559C8.10547 9.33301 7.95605 9.26172 7.7666 9.26172C7.5791 9.26172 7.43262 9.3125 7.32715 9.41406C7.22168 9.51562 7.16895 9.66113 7.16895 9.85059C7.16895 10.0205 7.2207 10.1572 7.32422 10.2607C7.42969 10.3623 7.60742 10.459 7.85742 10.5508C8.10742 10.6426 8.30371 10.7275 8.44629 10.8057C8.58887 10.8838 8.70898 10.9736 8.80664 11.0752C8.9043 11.1748 8.97949 11.29 9.03223 11.4209C9.08496 11.5518 9.11133 11.7051 9.11133 11.8809C9.11133 12.2109 9.00977 12.4785 8.80664 12.6836C8.60547 12.8887 8.32422 13.0098 7.96289 13.0469V13.6182H7.49707V13.0498C7.11035 13.0068 6.8125 12.8682 6.60352 12.6338C6.39648 12.3994 6.29297 12.0889 6.29297 11.7021H7.00488C7.00488 11.9482 7.06641 12.1387 7.18945 12.2734C7.31445 12.4082 7.49023 12.4756 7.7168 12.4756C7.93945 12.4756 8.1084 12.4219 8.22363 12.3145C8.34082 12.207 8.39941 12.0645 8.39941 11.8867Z" fill="black"/>
</svg>
