<?xml version="1.0" encoding="UTF-8" standalone="no"?>
<svg
   xmlns:dc="http://purl.org/dc/elements/1.1/"
   xmlns:cc="http://creativecommons.org/ns#"
   xmlns:rdf="http://www.w3.org/1999/02/22-rdf-syntax-ns#"
   xmlns:svg="http://www.w3.org/2000/svg"
   xmlns="http://www.w3.org/2000/svg"
   xmlns:sodipodi="http://sodipodi.sourceforge.net/DTD/sodipodi-0.dtd"
   xmlns:inkscape="http://www.inkscape.org/namespaces/inkscape"
   width="24"
   height="24"
   viewBox="0 0 24 24"
   fill="none"
   version="1.1"
   id="svg4"
   sodipodi:docname="UserManagment.svg"
   inkscape:version="1.0 (4035a4fb49, 2020-05-01)">
  <metadata
     id="metadata10">
    <rdf:RDF>
      <cc:Work
         rdf:about="">
        <dc:format>image/svg+xml</dc:format>
        <dc:type
           rdf:resource="http://purl.org/dc/dcmitype/StillImage" />
      </cc:Work>
    </rdf:RDF>
  </metadata>
  <defs
     id="defs8" />
  <sodipodi:namedview
     inkscape:document-rotation="0"
     pagecolor="#ffffff"
     bordercolor="#666666"
     borderopacity="1"
     objecttolerance="10"
     gridtolerance="10"
     guidetolerance="10"
     inkscape:pageopacity="0"
     inkscape:pageshadow="2"
     inkscape:window-width="1366"
     inkscape:window-height="706"
     id="namedview6"
     showgrid="false"
     inkscape:zoom="18.916667"
     inkscape:cx="12"
     inkscape:cy="12"
     inkscape:window-x="-8"
     inkscape:window-y="-8"
     inkscape:window-maximized="1"
     inkscape:current-layer="svg4" />
  <path
     d="M2 22C2 19.8783 2.84285 17.8434 4.34315 16.3431C5.84344 14.8429 7.87827 14 10 14C12.1217 14 14.1566 14.8429 15.6569 16.3431C17.1571 17.8434 18 19.8783 18 22H2ZM10 13C6.685 13 4 10.315 4 7C4 3.685 6.685 1 10 1C13.315 1 16 3.685 16 7C16 10.315 13.315 13 10 13ZM17.363 15.233C18.8926 15.6261 20.2593 16.4918 21.2683 17.7068C22.2774 18.9218 22.8774 20.4242 22.983 22H20C20 19.39 19 17.014 17.363 15.233ZM15.34 12.957C16.178 12.2075 16.8482 11.2893 17.3066 10.2627C17.765 9.23616 18.0013 8.12429 18 7C18.0021 5.63347 17.6526 4.28937 16.985 3.097C18.1176 3.32459 19.1365 3.93737 19.8685 4.8312C20.6004 5.72502 21.0002 6.84473 21 8C21.0003 8.71247 20.8482 9.41676 20.5541 10.0657C20.26 10.7146 19.8305 11.2931 19.2946 11.7625C18.7586 12.2319 18.1285 12.5814 17.4464 12.7874C16.7644 12.9934 16.0462 13.0512 15.34 12.957Z"
     fill="#C5D93A"
     id="path2"
     style="fill:#6dd0d1;fill-opacity:1" />
</svg>
